<svg width="352" height="404" viewBox="0 0 352 404" fill="none" xmlns="http://www.w3.org/2000/svg">
    <path d="M254.036 8.24458C253.92 8.24458 253.808 8.19833 253.726 8.116C253.643 8.03367 253.597 7.92201 253.597 7.80557V0.439009C253.597 0.322576 253.643 0.210912 253.726 0.128582C253.808 0.0462522 253.92 0 254.036 0C254.152 0.00224779 254.262 0.0492213 254.344 0.131069C254.426 0.212917 254.473 0.32328 254.475 0.439009V7.77923C254.478 7.83877 254.468 7.89817 254.447 7.95396C254.426 8.00976 254.394 8.06082 254.354 8.10415C254.313 8.14749 254.263 8.18224 254.209 8.20635C254.155 8.23046 254.096 8.24346 254.036 8.24458Z" fill="#263238"/>
    <path d="M254.036 104.607C253.92 104.607 253.808 104.561 253.726 104.478C253.643 104.396 253.597 104.284 253.597 104.168V98.0921C253.597 97.9757 253.643 97.864 253.726 97.7817C253.808 97.6993 253.92 97.6531 254.036 97.6531C254.152 97.6553 254.262 97.7023 254.344 97.7841C254.426 97.866 254.473 97.9764 254.475 98.0921V104.168C254.475 104.284 254.429 104.396 254.347 104.478C254.264 104.561 254.153 104.607 254.036 104.607Z" fill="#263238"/>
    <path d="M305.874 53.3834H299.175C299.059 53.3834 298.947 53.3372 298.865 53.2549C298.782 53.1725 298.736 53.0609 298.736 52.9444C298.738 52.8287 298.785 52.7183 298.867 52.6365C298.949 52.5547 299.059 52.5077 299.175 52.5054H305.874C305.991 52.5054 306.102 52.5517 306.185 52.634C306.267 52.7163 306.313 52.828 306.313 52.9444C306.313 53.0609 306.267 53.1725 306.185 53.2549C306.102 53.3372 305.991 53.3834 305.874 53.3834Z" fill="#263238"/>
    <path d="M208.889 53.3834H202.189C202.073 53.3834 201.961 53.3372 201.879 53.2549C201.797 53.1725 201.75 53.0609 201.75 52.9444C201.75 52.828 201.797 52.7163 201.879 52.634C201.961 52.5517 202.073 52.5054 202.189 52.5054H208.889C209.004 52.5077 209.115 52.5547 209.196 52.6365C209.278 52.7183 209.325 52.8287 209.328 52.9444C209.328 53.0609 209.281 53.1725 209.199 53.2549C209.117 53.3372 209.005 53.3834 208.889 53.3834Z" fill="#263238"/>
    <path d="M285.952 21.5114C285.836 21.5098 285.726 21.4625 285.645 21.3797C285.564 21.2962 285.519 21.1844 285.519 21.068C285.519 20.9517 285.564 20.8399 285.645 20.7564L290.693 15.7078C290.734 15.6668 290.783 15.6344 290.836 15.6122C290.89 15.59 290.947 15.5786 291.005 15.5786C291.063 15.5786 291.12 15.59 291.174 15.6122C291.227 15.6344 291.276 15.6668 291.317 15.7078C291.358 15.7487 291.39 15.7973 291.412 15.8508C291.435 15.9042 291.446 15.9616 291.446 16.0194C291.446 16.0773 291.435 16.1347 291.412 16.1881C291.39 16.2416 291.358 16.2902 291.317 16.3311L286.268 21.3797C286.184 21.4638 286.071 21.5112 285.952 21.5114Z" fill="#263238"/>
    <path d="M217.686 89.7422C217.629 89.7418 217.572 89.73 217.519 89.7074C217.467 89.6848 217.419 89.6518 217.379 89.6105C217.338 89.5697 217.305 89.5211 217.283 89.4676C217.261 89.4141 217.249 89.3567 217.249 89.2988C217.249 89.2408 217.261 89.1834 217.283 89.1299C217.305 89.0764 217.338 89.0279 217.379 88.9871L221.769 84.597C221.81 84.5558 221.858 84.5232 221.912 84.5009C221.965 84.4786 222.023 84.4671 222.081 84.4671C222.139 84.4671 222.196 84.4786 222.25 84.5009C222.303 84.5232 222.352 84.5558 222.392 84.597C222.434 84.6364 222.468 84.684 222.491 84.7369C222.514 84.7897 222.526 84.8467 222.526 84.9043C222.526 84.9619 222.514 85.0189 222.491 85.0717C222.468 85.1246 222.434 85.1722 222.392 85.2116L218.002 89.6017C217.962 89.6449 217.913 89.6796 217.858 89.7037C217.804 89.7278 217.746 89.7409 217.686 89.7422Z" fill="#263238"/>
    <path d="M222.112 21.5114C221.993 21.5112 221.879 21.4638 221.795 21.3797L216.747 16.3311C216.664 16.2485 216.618 16.1364 216.618 16.0194C216.618 15.9025 216.664 15.7904 216.747 15.7078C216.829 15.6251 216.942 15.5786 217.059 15.5786C217.175 15.5786 217.288 15.6251 217.37 15.7078L222.419 20.7564C222.46 20.7972 222.493 20.8457 222.515 20.8992C222.537 20.9527 222.549 21.0101 222.549 21.068C222.549 21.126 222.537 21.1834 222.515 21.2369C222.493 21.2904 222.46 21.3389 222.419 21.3797C222.379 21.4211 222.331 21.454 222.278 21.4767C222.226 21.4993 222.169 21.5111 222.112 21.5114Z" fill="#263238"/>
    <path d="M290.377 89.7422C290.32 89.7429 290.263 89.7315 290.21 89.7088C290.157 89.6861 290.109 89.6526 290.07 89.6104L285.68 85.2204C285.6 85.1383 285.554 85.028 285.554 84.9131C285.554 84.7981 285.6 84.6878 285.68 84.6058C285.721 84.5646 285.769 84.5319 285.823 84.5097C285.876 84.4874 285.934 84.4759 285.992 84.4759C286.05 84.4759 286.107 84.4874 286.16 84.5097C286.214 84.5319 286.263 84.5646 286.303 84.6058L290.693 88.9958C290.735 89.0367 290.767 89.0852 290.79 89.1387C290.812 89.1922 290.823 89.2496 290.823 89.3075C290.823 89.3655 290.812 89.4229 290.79 89.4764C290.767 89.5299 290.735 89.5784 290.693 89.6192C290.652 89.6609 290.603 89.6935 290.549 89.7147C290.494 89.7359 290.436 89.7452 290.377 89.7422Z" fill="#263238"/>
    <path d="M254.036 70.5136C264.084 70.5136 272.229 62.3685 272.229 52.3211C272.229 42.2736 264.084 34.1285 254.036 34.1285C243.989 34.1285 235.844 42.2736 235.844 52.3211C235.844 62.3685 243.989 70.5136 254.036 70.5136Z" fill="#3BB54A"/>
    <path d="M254.036 70.9526C250.351 70.9526 246.749 69.8599 243.685 67.8126C240.621 65.7653 238.233 62.8555 236.823 59.451C235.413 56.0466 235.044 52.3004 235.763 48.6862C236.482 45.0721 238.256 41.7522 240.862 39.1466C243.467 36.5409 246.787 34.7664 250.401 34.0475C254.016 33.3286 257.762 33.6976 261.166 35.1078C264.571 36.5179 267.481 38.906 269.528 41.9699C271.575 45.0339 272.668 48.6361 272.668 52.321C272.663 57.261 270.699 61.9973 267.206 65.4904C263.712 68.9835 258.976 70.9479 254.036 70.9526ZM254.036 34.5675C250.525 34.5675 247.092 35.6088 244.173 37.5595C241.253 39.5103 238.978 42.283 237.634 45.5271C236.29 48.7711 235.939 52.3407 236.624 55.7846C237.309 59.2284 239 62.3918 241.483 64.8747C243.965 67.3575 247.129 69.0484 250.573 69.7334C254.017 70.4185 257.586 70.0669 260.83 68.7232C264.074 67.3794 266.847 65.1039 268.798 62.1844C270.748 59.2648 271.79 55.8324 271.79 52.321C271.785 47.6139 269.913 43.101 266.585 39.7726C263.256 36.4441 258.743 34.5722 254.036 34.5675Z" fill="#263238"/>
    <path d="M254.036 30.3882C253.92 30.3882 253.808 30.3419 253.726 30.2596C253.643 30.1773 253.597 30.0656 253.597 29.9492V16.5682C253.597 16.4518 253.643 16.3401 253.726 16.2578C253.808 16.1754 253.92 16.1292 254.036 16.1292C254.153 16.1292 254.264 16.1754 254.347 16.2578C254.429 16.3401 254.475 16.4518 254.475 16.5682V29.9492C254.473 30.0649 254.426 30.1753 254.344 30.2571C254.262 30.339 254.152 30.3859 254.036 30.3882Z" fill="#263238"/>
    <path d="M254.036 89.7773C253.92 89.7773 253.808 89.7311 253.726 89.6487C253.643 89.5664 253.597 89.4547 253.597 89.3383V75.9485C253.597 75.8321 253.643 75.7204 253.726 75.6381C253.808 75.5558 253.92 75.5095 254.036 75.5095C254.152 75.5118 254.262 75.5587 254.344 75.6406C254.426 75.7224 254.473 75.8328 254.475 75.9485V89.3383C254.473 89.454 254.426 89.5644 254.344 89.6462C254.262 89.7281 254.152 89.7751 254.036 89.7773Z" fill="#263238"/>
    <path d="M290.421 53.3922H277.031C276.916 53.39 276.805 53.343 276.724 53.2612C276.642 53.1793 276.595 53.069 276.592 52.9532C276.592 52.8368 276.639 52.7251 276.721 52.6428C276.803 52.5605 276.915 52.5142 277.031 52.5142H290.421C290.538 52.5142 290.649 52.5605 290.732 52.6428C290.814 52.7251 290.86 52.8368 290.86 52.9532C290.858 53.069 290.811 53.1793 290.729 53.2612C290.647 53.343 290.537 53.39 290.421 53.3922Z" fill="#263238"/>
    <path d="M231.032 53.3922H217.651C217.535 53.3922 217.423 53.346 217.341 53.2637C217.258 53.1813 217.212 53.0697 217.212 52.9532C217.212 52.8368 217.258 52.7251 217.341 52.6428C217.423 52.5605 217.535 52.5142 217.651 52.5142H231.032C231.149 52.5142 231.26 52.5605 231.343 52.6428C231.425 52.7251 231.471 52.8368 231.471 52.9532C231.469 53.069 231.422 53.1793 231.34 53.2612C231.258 53.343 231.148 53.39 231.032 53.3922Z" fill="#263238"/>
    <path d="M270.297 37.1226C270.211 37.1214 270.128 37.095 270.056 37.0467C269.985 36.9983 269.93 36.9302 269.897 36.8508C269.865 36.7713 269.856 36.684 269.872 36.5996C269.889 36.5153 269.93 36.4376 269.99 36.3763L279.455 26.9112C279.494 26.8692 279.542 26.8358 279.595 26.8129C279.648 26.79 279.705 26.7782 279.762 26.7782C279.82 26.7782 279.877 26.79 279.93 26.8129C279.982 26.8358 280.03 26.8692 280.069 26.9112C280.111 26.952 280.143 27.0006 280.166 27.0541C280.188 27.1076 280.199 27.165 280.199 27.2229C280.199 27.2809 280.188 27.3383 280.166 27.3918C280.143 27.4453 280.111 27.4938 280.069 27.5346L270.622 36.9909C270.581 37.0353 270.53 37.0702 270.474 37.0929C270.418 37.1157 270.358 37.1258 270.297 37.1226Z" fill="#263238"/>
    <path d="M228.302 79.1181C228.186 79.1165 228.075 79.0691 227.994 78.9864C227.913 78.9029 227.868 78.7911 227.868 78.6747C227.868 78.5584 227.913 78.4466 227.994 78.363L237.459 68.9243C237.5 68.8832 237.549 68.8505 237.602 68.8283C237.656 68.806 237.713 68.7945 237.771 68.7945C237.829 68.7945 237.886 68.806 237.94 68.8283C237.993 68.8505 238.042 68.8832 238.083 68.9243C238.163 69.0064 238.208 69.1167 238.208 69.2317C238.208 69.3466 238.163 69.4569 238.083 69.539L228.618 79.004C228.531 79.0816 228.418 79.1226 228.302 79.1181Z" fill="#263238"/>
    <path d="M237.767 37.1226C237.709 37.1222 237.652 37.1104 237.6 37.0878C237.547 37.0652 237.499 37.0322 237.459 36.9909L227.994 27.5346C227.913 27.4511 227.868 27.3393 227.868 27.2229C227.868 27.1066 227.913 26.9948 227.994 26.9112C228.035 26.8701 228.084 26.8374 228.137 26.8151C228.191 26.7928 228.248 26.7814 228.306 26.7814C228.364 26.7814 228.421 26.7928 228.475 26.8151C228.528 26.8374 228.577 26.8701 228.618 26.9112L238.083 36.3763C238.163 36.4583 238.208 36.5686 238.208 36.6836C238.208 36.7985 238.163 36.9088 238.083 36.9909C237.999 37.0749 237.885 37.1223 237.767 37.1226Z" fill="#263238"/>
    <path d="M279.762 79.1182C279.705 79.1189 279.647 79.1075 279.595 79.0848C279.542 79.0622 279.494 79.0287 279.455 78.9865L269.99 69.5214C269.908 69.4399 269.863 69.3294 269.863 69.2141C269.863 69.0989 269.908 68.9883 269.99 68.9068C270.071 68.8253 270.182 68.7795 270.297 68.7795C270.412 68.7795 270.523 68.8253 270.604 68.9068L280.069 78.3631C280.111 78.4039 280.143 78.4524 280.166 78.5059C280.188 78.5594 280.199 78.6168 280.199 78.6748C280.199 78.7327 280.188 78.7901 280.166 78.8436C280.143 78.8971 280.111 78.9457 280.069 78.9865C280.03 79.0287 279.983 79.0622 279.93 79.0848C279.877 79.1075 279.82 79.1189 279.762 79.1182Z" fill="#263238"/>
    <path opacity="0.19" d="M188.088 88.03C187.036 86.0493 185.536 84.3421 183.706 83.0447C181.877 81.7473 179.769 80.8958 177.552 80.5581C170.08 79.5396 167.016 87.0115 164.645 91.0943C162.275 95.1771 157.173 90.0758 151.396 90.4183C145.619 90.7607 144.943 94.1498 142.906 96.5644C140.869 98.9789 135.091 96.2219 132.036 97.9253C128.98 99.6287 128.638 101.999 128.638 101.999H214.236C214.236 101.999 216.958 92.4904 209.846 91.4631C202.734 90.4358 200.679 94.1762 198.3 93.5001C195.92 92.824 196.939 88.4076 193.541 87.354C192.644 87.0247 191.681 86.9144 190.733 87.0319C189.784 87.1495 188.878 87.4917 188.088 88.03Z" fill="black"/>
    <path opacity="0.19" d="M103.658 109.559C102.606 107.578 101.106 105.871 99.2761 104.574C97.4467 103.276 95.3392 102.425 93.122 102.087C85.65 101.069 82.5858 108.541 80.2151 112.623C77.8445 116.706 72.7432 111.605 66.9658 111.947C61.1885 112.29 60.5124 115.679 58.4754 118.093C56.4384 120.508 50.6611 117.751 47.6056 119.454C44.5501 121.158 44.2076 123.528 44.2076 123.528H129.814C129.814 123.528 132.527 114.019 125.424 112.992C118.321 111.965 116.249 115.705 113.87 115.029C111.49 114.353 112.517 109.937 109.119 108.883C108.221 108.552 107.257 108.441 106.307 108.559C105.357 108.676 104.449 109.019 103.658 109.559Z" fill="black"/>
    <path opacity="0.19" d="M263.475 109.559C262.423 107.578 260.922 105.871 259.093 104.574C257.263 103.276 255.156 102.425 252.939 102.087C245.467 101.069 242.403 108.541 240.032 112.623C237.661 116.706 232.56 111.605 226.783 111.947C221.005 112.29 220.329 115.679 218.292 118.093C216.255 120.508 210.478 117.751 207.422 119.454C204.367 121.158 204.024 123.528 204.024 123.528H289.622C289.622 123.528 292.344 114.019 285.232 112.992C278.12 111.965 276.066 115.705 273.686 115.029C271.307 114.353 272.325 109.937 268.927 108.883C268.03 108.554 267.068 108.443 266.119 108.561C265.171 108.679 264.264 109.021 263.475 109.559Z" fill="black"/>
    <path opacity="0.19" d="M304.865 176.165C304.299 175.1 303.492 174.182 302.509 173.484C301.526 172.786 300.393 172.327 299.201 172.144C295.189 171.6 293.547 175.612 292.265 177.807C290.983 180.002 288.253 177.254 285.153 177.439C282.054 177.623 281.685 179.449 280.587 180.722C279.49 181.995 276.391 180.547 274.749 181.46C274.301 181.666 273.906 181.97 273.59 182.348C273.274 182.726 273.046 183.169 272.922 183.646H318.913C318.913 183.646 320.379 178.536 316.542 177.992C312.705 177.447 311.617 179.449 310.335 179.08C309.053 178.712 309.606 176.341 307.78 175.797C307.299 175.622 306.785 175.564 306.278 175.628C305.771 175.693 305.286 175.877 304.865 176.165Z" fill="black"/>
    <path opacity="0.19" d="M54.3575 176.165C53.7927 175.102 52.9875 174.184 52.0059 173.486C51.0243 172.788 49.8934 172.328 48.7031 172.144C44.6905 171.6 43.0486 175.612 41.7667 177.807C40.4848 180.002 37.7542 177.254 34.646 177.439C31.5378 177.623 31.1779 179.449 30.0891 180.722C29.0004 181.995 25.8834 180.547 24.2415 181.46C23.7943 181.666 23.3984 181.97 23.0826 182.348C22.7668 182.726 22.5388 183.169 22.4152 183.646H68.4146C68.4146 183.646 69.8721 178.536 66.0439 177.992C62.2158 177.447 61.1095 179.449 59.8363 179.08C58.5632 178.712 59.1076 176.341 57.2813 175.797C56.7996 175.622 56.2833 175.564 55.7749 175.628C55.2665 175.692 54.7807 175.877 54.3575 176.165Z" fill="black"/>
    <path d="M277.169 105.037L266.122 95.5151L235.992 130.47L247.039 139.992L277.169 105.037Z" fill="#263238"/>
    <path d="M247.074 140.614L235.37 130.517L266.1 94.8961L277.804 104.993L247.074 140.614ZM236.608 130.386L246.986 139.341L276.54 105.046L266.162 96.1429L236.608 130.386Z" fill="#263238"/>
    <path d="M288.073 124.483L277.146 115.064L249.252 147.426L260.179 156.844L288.073 124.483Z" fill="#263238"/>
    <path d="M260.209 157.464L248.619 147.481L277.084 114.458L288.674 124.441L260.209 157.464ZM249.857 147.384L260.086 156.226L287.401 124.538L277.146 115.696L249.857 147.384Z" fill="#263238"/>
    <path d="M198.177 138.226L205.087 130.21L211.672 135.891L227.178 117.9L267.979 153.065L274.09 145.97L281.185 152.09L270.051 165.006L274.354 168.72L257.829 187.887L198.177 138.226Z" fill="#263238"/>
    <path d="M257.882 188.502L197.553 138.288L205.043 129.595L211.628 135.276L227.134 117.286L267.926 152.45L274.073 145.356L281.834 152.046L270.692 164.971L275.003 168.685L257.882 188.502ZM198.8 138.174L257.785 187.272L273.739 168.764L269.428 165.058L280.57 152.134L274.134 146.585L267.988 153.688L227.195 118.515L211.716 136.532L205.131 130.851L198.8 138.174Z" fill="#263238"/>
    <path d="M271.911 132.03L259.687 121.494L225.98 160.599L238.204 171.135L271.911 132.03Z" fill="white"/>
    <path d="M238.232 171.758L225.343 160.642L259.629 120.877L272.518 131.984L238.232 171.758ZM226.581 160.554L238.135 170.52L271.272 132.08L259.717 122.115L226.581 160.554Z" fill="#263238"/>
    <path d="M275.876 135.438L263.653 124.901L229.945 164.007L242.169 174.543L275.876 135.438Z" fill="white"/>
    <path d="M242.201 175.164L229.355 164.058L263.598 124.292L276.487 135.399L242.201 175.164ZM230.549 163.961L242.104 173.926L275.24 135.487L263.686 125.53L230.549 163.961Z" fill="#263238"/>
    <path d="M278.426 134.385L260.37 118.821L258.094 121.461L276.151 137.025L278.426 134.385Z" fill="white"/>
    <path d="M276.18 137.656L257.452 121.518L260.305 118.207L279.025 134.345L276.18 137.656ZM258.698 121.43L276.092 136.418L277.795 134.442L260.402 119.445L258.698 121.43Z" fill="#263238"/>
    <path d="M279.689 133.804L265.616 121.767L263.35 124.417L277.423 136.453L279.689 133.804Z" fill="white"/>
    <path d="M276.18 137.656L261.491 124.995L264.344 121.684L279.033 134.345L276.18 137.656ZM262.72 124.898L276.083 136.418L277.787 134.442L264.476 122.922L262.72 124.898Z" fill="#263238"/>
    <path d="M264.406 130.752L261.985 128.665L258.758 132.409L261.179 134.496L264.406 130.752Z" fill="#263238"/>
    <path d="M268.584 134.346L266.163 132.259L262.936 136.003L265.357 138.09L268.584 134.346Z" fill="#263238"/>
    <path d="M272.772 137.961L270.351 135.874L267.124 139.618L269.545 141.705L272.772 137.961Z" fill="#263238"/>
    <path d="M258.853 125.941L258.148 125.334L254.921 129.078L255.626 129.685L258.853 125.941Z" fill="#263238"/>
    <path d="M260.047 127.009L259.342 126.402L256.114 130.146L256.819 130.753L260.047 127.009Z" fill="#263238"/>
    <path d="M253.9 131.685L253.195 131.077L249.967 134.821L250.672 135.429L253.9 131.685Z" fill="#263238"/>
    <path d="M255.093 132.744L254.388 132.136L251.161 135.881L251.866 136.488L255.093 132.744Z" fill="#263238"/>
    <path d="M248.935 137.434L248.23 136.826L245.003 140.57L245.707 141.178L248.935 137.434Z" fill="#263238"/>
    <path d="M250.139 138.487L249.434 137.88L246.207 141.624L246.912 142.232L250.139 138.487Z" fill="#263238"/>
    <path d="M243.981 143.177L243.276 142.57L240.049 146.314L240.754 146.922L243.981 143.177Z" fill="#263238"/>
    <path d="M245.224 144.212L244.519 143.605L241.292 147.349L241.997 147.957L245.224 144.212Z" fill="#263238"/>
    <path d="M239.034 148.918L238.329 148.31L235.102 152.054L235.807 152.662L239.034 148.918Z" fill="#263238"/>
    <path d="M240.271 149.956L239.566 149.348L236.338 153.093L237.043 153.7L240.271 149.956Z" fill="#263238"/>
    <path d="M259.458 136.48L257.037 134.393L253.81 138.137L256.231 140.224L259.458 136.48Z" fill="#263238"/>
    <path d="M263.646 140.095L261.225 138.008L257.998 141.752L260.418 143.839L263.646 140.095Z" fill="#263238"/>
    <path d="M267.818 143.695L265.397 141.609L262.17 145.353L264.591 147.44L267.818 143.695Z" fill="#263238"/>
    <path d="M254.511 142.229L252.09 140.142L248.863 143.886L251.283 145.973L254.511 142.229Z" fill="#263238"/>
    <path d="M258.683 145.838L256.262 143.752L253.035 147.496L255.456 149.583L258.683 145.838Z" fill="#263238"/>
    <path d="M264.15 148.955L261.721 146.877L258.508 150.634L260.937 152.712L264.15 148.955Z" fill="#263238"/>
    <path d="M249.557 147.964L247.136 145.877L243.909 149.621L246.33 151.708L249.557 147.964Z" fill="#263238"/>
    <path d="M253.745 151.579L251.324 149.492L248.097 153.236L250.518 155.323L253.745 151.579Z" fill="#263238"/>
    <path d="M257.923 155.181L255.502 153.095L252.275 156.839L254.696 158.926L257.923 155.181Z" fill="#263238"/>
    <path d="M244.61 153.713L242.189 151.626L238.962 155.37L241.383 157.457L244.61 153.713Z" fill="#263238"/>
    <path d="M248.797 157.316L246.376 155.229L243.149 158.973L245.57 161.06L248.797 157.316Z" fill="#263238"/>
    <path d="M252.978 160.916L250.557 158.83L247.33 162.574L249.751 164.66L252.978 160.916Z" fill="#263238"/>
    <path d="M247.495 129.258L232.637 116.451L207.965 145.075L222.822 157.882L247.495 129.258Z" fill="white"/>
    <path d="M222.867 158.482L207.343 145.101L232.586 115.81L248.11 129.191L222.867 158.482ZM208.581 145.005L222.77 157.244L246.915 129.314L232.718 117.075L208.581 145.005Z" fill="#263238"/>
    <path d="M252.315 133.417L237.458 120.611L212.785 149.235L227.642 162.041L252.315 133.417Z" fill="white"/>
    <path d="M227.678 162.662L212.155 149.281L237.407 119.99L252.93 133.371L227.678 162.662ZM213.393 149.184L227.599 161.424L251.701 133.459L237.503 121.228L213.393 149.184Z" fill="#263238"/>
    <path d="M254.642 133.033L232.695 114.116L231.027 116.051L252.974 134.968L254.642 133.033Z" fill="white"/>
    <path d="M253.009 135.592L230.4 116.1L232.639 113.466L255.248 133.02L253.009 135.592ZM231.638 116.012L252.921 134.354L254.01 133.081L232.736 114.739L231.638 116.012Z" fill="#263238"/>
    <path d="M254.641 133.039L237.596 118.346L235.928 120.282L252.973 134.974L254.641 133.039Z" fill="white"/>
    <path d="M253.009 135.592L235.299 120.323L237.538 117.689L255.248 133.02L253.009 135.592ZM236.537 120.236L252.921 134.354L254.01 133.081L237.626 118.971L236.537 120.236Z" fill="#263238"/>
    <path d="M239.616 126.265L236.67 123.726L234.308 126.466L237.254 129.005L239.616 126.265Z" fill="#263238"/>
    <path d="M244.707 130.647L241.76 128.107L239.399 130.847L242.345 133.387L244.707 130.647Z" fill="#263238"/>
    <path d="M249.795 135.034L246.849 132.494L244.487 135.234L247.433 137.774L249.795 135.034Z" fill="#263238"/>
    <path d="M232.854 120.433L231.997 119.694L229.635 122.434L230.493 123.173L232.854 120.433Z" fill="#263238"/>
    <path d="M234.352 121.702L233.494 120.963L231.132 123.703L231.99 124.442L234.352 121.702Z" fill="#263238"/>
    <path d="M229.232 124.641L228.374 123.901L226.012 126.641L226.87 127.381L229.232 124.641Z" fill="#263238"/>
    <path d="M230.71 125.915L229.852 125.176L227.49 127.916L228.348 128.655L230.71 125.915Z" fill="#263238"/>
    <path d="M225.596 128.847L224.738 128.107L222.376 130.847L223.234 131.587L225.596 128.847Z" fill="#263238"/>
    <path d="M227.085 130.116L226.227 129.376L223.865 132.116L224.723 132.856L227.085 130.116Z" fill="#263238"/>
    <path d="M221.949 133.056L221.091 132.316L218.729 135.056L219.587 135.795L221.949 133.056Z" fill="#263238"/>
    <path d="M223.487 134.311L222.629 133.572L220.267 136.312L221.125 137.051L223.487 134.311Z" fill="#263238"/>
    <path d="M218.372 137.243L217.514 136.503L215.152 139.243L216.01 139.983L218.372 137.243Z" fill="#263238"/>
    <path d="M219.826 138.521L218.968 137.781L216.606 140.521L217.464 141.261L219.826 138.521Z" fill="#263238"/>
    <path d="M236.006 130.463L233.06 127.923L230.698 130.663L233.644 133.203L236.006 130.463Z" fill="#263238"/>
    <path d="M241.088 134.853L238.142 132.313L235.78 135.053L238.726 137.593L241.088 134.853Z" fill="#263238"/>
    <path d="M246.164 139.241L243.218 136.701L240.856 139.441L243.802 141.981L246.164 139.241Z" fill="#263238"/>
    <path d="M232.375 134.67L229.429 132.131L227.067 134.871L230.013 137.41L232.375 134.67Z" fill="#263238"/>
    <path d="M238.633 138.607L235.677 136.078L233.326 138.828L236.282 141.356L238.633 138.607Z" fill="#263238"/>
    <path d="M242.545 143.438L239.599 140.899L237.237 143.639L240.183 146.178L242.545 143.438Z" fill="#263238"/>
    <path d="M228.756 138.868L225.81 136.328L223.448 139.068L226.394 141.608L228.756 138.868Z" fill="#263238"/>
    <path d="M233.847 143.249L230.9 140.709L228.539 143.449L231.485 145.989L233.847 143.249Z" fill="#263238"/>
    <path d="M238.923 147.637L235.976 145.097L233.615 147.837L236.561 150.377L238.923 147.637Z" fill="#263238"/>
    <path d="M225.134 143.075L222.188 140.535L219.826 143.275L222.772 145.815L225.134 143.075Z" fill="#263238"/>
    <path d="M230.224 147.456L227.278 144.917L224.916 147.657L227.862 150.196L230.224 147.456Z" fill="#263238"/>
    <path d="M235.304 151.843L232.358 149.304L229.996 152.044L232.942 154.583L235.304 151.843Z" fill="#263238"/>
    <path d="M278.414 155.903L263.556 143.096L238.884 171.72L253.741 184.527L278.414 155.903Z" fill="white"/>
    <path d="M253.782 185.156L238.258 171.775L263.501 142.485L279.025 155.848L253.782 185.156ZM239.496 171.652L253.685 183.945L277.787 155.989L263.598 143.723L239.496 171.652Z" fill="#263238"/>
    <path d="M283.234 160.062L268.377 147.256L243.704 175.88L258.561 188.686L283.234 160.062Z" fill="white"/>
    <path d="M258.593 189.309L243.07 175.928L268.322 146.638L283.845 160.019L258.593 189.309ZM244.281 175.832L258.505 188.071L282.607 160.115L268.409 147.876L244.281 175.832Z" fill="#263238"/>
    <path d="M285.561 159.687L263.614 140.77L261.946 142.705L283.893 161.622L285.561 159.687Z" fill="white"/>
    <path d="M283.924 162.24L261.315 142.748L263.554 140.114L286.163 159.606L283.924 162.24ZM262.553 142.678L283.836 161.02L284.925 159.755L263.651 141.413L262.553 142.678Z" fill="#263238"/>
    <path d="M285.56 159.684L268.515 144.992L266.847 146.927L283.892 161.619L285.56 159.684Z" fill="white"/>
    <path d="M283.924 162.24L266.232 146.971L268.471 144.337L286.18 159.606L283.924 162.24ZM267.452 146.883L283.836 161.002L284.925 159.738L268.55 145.61L267.452 146.883Z" fill="#263238"/>
    <path d="M270.526 152.919L267.58 150.38L265.218 153.12L268.164 155.659L270.526 152.919Z" fill="#263238"/>
    <path d="M275.623 157.297L272.677 154.758L270.315 157.498L273.262 160.038L275.623 157.297Z" fill="#263238"/>
    <path d="M282.066 161.167L279.11 158.638L276.759 161.388L279.715 163.916L282.066 161.167Z" fill="#263238"/>
    <path d="M263.756 147.087L262.898 146.348L260.536 149.088L261.394 149.827L263.756 147.087Z" fill="#263238"/>
    <path d="M265.248 148.363L264.39 147.623L262.028 150.363L262.886 151.103L265.248 148.363Z" fill="#263238"/>
    <path d="M260.151 151.286L259.293 150.546L256.931 153.286L257.789 154.026L260.151 151.286Z" fill="#263238"/>
    <path d="M261.647 152.56L260.789 151.821L258.427 154.561L259.285 155.3L261.647 152.56Z" fill="#263238"/>
    <path d="M256.492 155.504L255.635 154.765L253.272 157.504L254.13 158.244L256.492 155.504Z" fill="#263238"/>
    <path d="M258.016 156.759L257.158 156.019L254.796 158.759L255.654 159.499L258.016 156.759Z" fill="#263238"/>
    <path d="M252.884 159.699L252.026 158.96L249.664 161.7L250.522 162.439L252.884 159.699Z" fill="#263238"/>
    <path d="M254.37 160.974L253.513 160.234L251.151 162.974L252.009 163.714L254.37 160.974Z" fill="#263238"/>
    <path d="M249.285 163.895L248.428 163.155L246.066 165.895L246.924 166.635L249.285 163.895Z" fill="#263238"/>
    <path d="M250.757 165.172L249.899 164.433L247.537 167.173L248.395 167.912L250.757 165.172Z" fill="#263238"/>
    <path d="M266.911 157.123L263.964 154.584L261.603 157.324L264.549 159.863L266.911 157.123Z" fill="#263238"/>
    <path d="M272.001 161.505L269.055 158.965L266.693 161.705L269.639 164.245L272.001 161.505Z" fill="#263238"/>
    <path d="M278.438 165.395L275.482 162.867L273.131 165.616L276.087 168.144L278.438 165.395Z" fill="#263238"/>
    <path d="M263.294 161.315L260.348 158.776L257.986 161.516L260.932 164.055L263.294 161.315Z" fill="#263238"/>
    <path d="M268.382 165.702L265.436 163.163L263.074 165.903L266.02 168.442L268.382 165.702Z" fill="#263238"/>
    <path d="M273.473 170.083L270.527 167.544L268.165 170.284L271.111 172.824L273.473 170.083Z" fill="#263238"/>
    <path d="M259.678 165.519L256.732 162.98L254.37 165.72L257.316 168.259L259.678 165.519Z" fill="#263238"/>
    <path d="M266.095 169.465L263.139 166.936L260.788 169.686L263.744 172.214L266.095 169.465Z" fill="#263238"/>
    <path d="M269.833 174.291L266.887 171.751L264.525 174.491L267.471 177.031L269.833 174.291Z" fill="#263238"/>
    <path d="M256.053 169.72L253.107 167.181L250.745 169.921L253.691 172.46L256.053 169.72Z" fill="#263238"/>
    <path d="M261.141 174.107L258.195 171.568L255.833 174.308L258.779 176.847L261.141 174.107Z" fill="#263238"/>
    <path d="M266.223 178.488L263.277 175.949L260.915 178.689L263.861 181.228L266.223 178.488Z" fill="#263238"/>
    <path d="M79.7937 192.382L72.4886 184.726L78.7839 178.72L62.3826 161.538L101.349 124.354L94.8868 117.575L101.665 111.113L113.439 123.449L117.557 119.525L135.021 137.831L79.7937 192.382Z" fill="#263238"/>
    <path d="M79.7849 193.006L71.8827 184.709L78.1606 178.677L61.768 161.494L100.734 124.31L94.2634 117.531L101.674 110.507L113.457 122.835L117.566 118.91L135.644 137.84L135.337 138.147L79.7849 193.006ZM73.112 184.735L79.8024 191.759L134.406 137.822L117.54 120.148L113.457 124.073L101.674 111.728L95.5277 117.593L101.99 124.371L63.0235 161.546L79.4249 178.729L73.112 184.735Z" fill="#263238"/>
    <path d="M80.6358 166.366L71.2094 175.362L82.9993 187.717L92.4257 178.721L80.6358 166.366Z" fill="white"/>
    <path d="M82.9809 188.335L70.5833 175.34L80.6453 165.743L93.0429 178.729L82.9809 188.335ZM71.83 175.375L83.0072 187.097L91.7874 178.703L80.619 166.999L71.83 175.375Z" fill="#263238"/>
    <path d="M80.6363 166.368L75.6754 171.102L87.4653 183.457L92.4262 178.723L80.6363 166.368Z" fill="white"/>
    <path d="M87.45 184.094L75.0524 171.099L80.6453 165.761L93.043 178.747L87.45 184.094ZM76.2904 171.126L87.4763 182.847L91.8049 178.72L80.619 166.999L76.2904 171.126Z" fill="#263238"/>
    <path d="M57.8081 132.027L62.8655 141.949L95.2731 175.911L104.299 167.297L64.5249 125.618L57.8081 132.027Z" fill="white"/>
    <path d="M95.2643 176.534L62.4792 142.142L57.2637 131.94L64.5425 124.995L104.931 167.315L95.2643 176.534ZM63.2255 141.686L95.2907 175.287L103.676 167.28L64.5162 126.233L58.37 132.124L63.2255 141.686Z" fill="#263238"/>
    <path d="M54.7175 134.978L59.7749 144.89L92.1913 178.861L101.217 170.248L61.4343 128.559L54.7175 134.978Z" fill="white"/>
    <path d="M92.1737 179.476L59.3885 145.092L54.1731 134.881L61.4519 127.945L101.841 170.256L92.1737 179.476ZM60.1436 144.636L92.2 178.238L100.594 170.23L61.4256 129.183L55.2794 135.065L60.1436 144.636Z" fill="#263238"/>
    <path d="M59.9652 130.42L59.33 131.026L98.8822 172.473L99.5174 171.867L59.9652 130.42Z" fill="#263238"/>
    <path d="M61.6826 134.546L57.407 138.625L58.0131 139.26L62.2887 135.181L61.6826 134.546Z" fill="#263238"/>
    <path d="M65.0829 138.108L60.8073 142.186L61.4133 142.822L65.6889 138.743L65.0829 138.108Z" fill="#263238"/>
    <path d="M68.4831 141.678L64.2075 145.757L64.8136 146.392L69.0892 142.313L68.4831 141.678Z" fill="#263238"/>
    <path d="M71.8837 145.227L67.608 149.306L68.2141 149.941L72.4897 145.863L71.8837 145.227Z" fill="#263238"/>
    <path d="M75.2839 148.789L71.0083 152.868L71.6143 153.503L75.8899 149.424L75.2839 148.789Z" fill="#263238"/>
    <path d="M78.6841 152.359L74.4085 156.438L75.0146 157.073L79.2902 152.995L78.6841 152.359Z" fill="#263238"/>
    <path d="M82.0844 155.921L77.8088 160L78.4148 160.635L82.6904 156.556L82.0844 155.921Z" fill="#263238"/>
    <path d="M85.4698 159.485L81.1942 163.564L81.8002 164.199L86.0758 160.12L85.4698 159.485Z" fill="#263238"/>
    <path d="M88.8764 163.041L84.6007 167.119L85.2068 167.755L89.4824 163.676L88.8764 163.041Z" fill="#263238"/>
    <path d="M92.2766 166.611L88.001 170.69L88.607 171.325L92.8827 167.246L92.2766 166.611Z" fill="#263238"/>
    <path d="M95.6768 170.172L91.4012 174.251L92.0073 174.887L96.2829 170.808L95.6768 170.172Z" fill="#263238"/>
    <path d="M80.7945 118.394L69.1195 129.535L104.762 166.885L116.437 155.744L80.7945 118.394Z" fill="white"/>
    <path d="M104.747 167.517L68.5024 129.508L80.7946 117.751L117.048 155.743L104.747 167.517ZM69.7404 129.56L104.782 166.279L115.819 155.743L80.7858 119.024L69.7404 129.56Z" fill="#263238"/>
    <path d="M84.582 114.78L72.907 125.921L108.549 163.271L120.224 152.13L84.582 114.78Z" fill="white"/>
    <path d="M108.54 163.908L72.2866 125.916L84.5789 114.169L120.832 152.16L108.54 163.908ZM73.5334 125.943L108.566 162.67L119.612 152.134L84.5701 115.407L73.5334 125.943Z" fill="#263238"/>
    <path d="M83.7797 112.14L66.534 128.597L68.9405 131.119L86.1862 114.662L83.7797 112.14Z" fill="white"/>
    <path d="M68.9326 131.746L65.921 128.586L83.7974 111.526L86.8178 114.687L68.9326 131.746ZM67.1765 128.621L68.9326 130.508L85.5447 114.704L83.7447 112.816L67.1765 128.621Z" fill="#263238"/>
    <path d="M83.7856 112.132L70.3892 124.916L72.7956 127.438L86.192 114.654L83.7856 112.132Z" fill="white"/>
    <path d="M72.7871 128.076L69.7667 124.916L83.815 111.526L86.8354 114.687L72.7871 128.076ZM71.031 124.942L72.831 126.838L85.5886 114.66L83.7887 112.773L71.031 124.942Z" fill="#263238"/>
    <path d="M78.7997 125.744L76.4876 127.951L79.9003 131.527L82.2125 129.32L78.7997 125.744Z" fill="#263238"/>
    <path d="M82.7907 121.933L80.4786 124.139L83.8913 127.715L86.2034 125.509L82.7907 121.933Z" fill="#263238"/>
    <path d="M86.7844 118.115L84.4723 120.321L87.885 123.897L90.1972 121.691L86.7844 118.115Z" fill="#263238"/>
    <path d="M73.4805 130.807L72.8072 131.449L76.2199 135.025L76.8932 134.383L73.4805 130.807Z" fill="#263238"/>
    <path d="M74.6439 129.715L73.9706 130.358L77.3833 133.934L78.0566 133.291L74.6439 129.715Z" fill="#263238"/>
    <path d="M78.7193 136.309L78.046 136.952L81.4587 140.528L82.132 139.885L78.7193 136.309Z" fill="#263238"/>
    <path d="M79.8739 135.191L79.2006 135.834L82.6133 139.41L83.2866 138.768L79.8739 135.191Z" fill="#263238"/>
    <path d="M83.9432 141.77L83.2699 142.413L86.6826 145.989L87.3559 145.346L83.9432 141.77Z" fill="#263238"/>
    <path d="M85.1067 140.67L84.4333 141.312L87.8461 144.889L88.5194 144.246L85.1067 140.67Z" fill="#263238"/>
    <path d="M88.6288 146.749L87.9587 147.391L91.3695 150.95L92.0396 150.308L88.6288 146.749Z" fill="#263238"/>
    <path d="M90.3455 146.164L89.6721 146.806L93.0849 150.382L93.7582 149.74L90.3455 146.164Z" fill="#263238"/>
    <path d="M94.4148 152.733L93.7414 153.376L97.1541 156.952L97.8275 156.31L94.4148 152.733Z" fill="#263238"/>
    <path d="M94.9925 151.115L94.3224 151.757L97.7332 155.316L98.4033 154.674L94.9925 151.115Z" fill="#263238"/>
    <path d="M84.0237 131.223L81.7116 133.429L85.1243 137.005L87.4364 134.799L84.0237 131.223Z" fill="#263238"/>
    <path d="M88.0235 127.411L85.7113 129.618L89.124 133.194L91.4362 130.987L88.0235 127.411Z" fill="#263238"/>
    <path d="M92.0232 123.6L89.7111 125.806L93.1238 129.382L95.4359 127.176L92.0232 123.6Z" fill="#263238"/>
    <path d="M89.2625 136.708L86.9504 138.914L90.3631 142.49L92.6752 140.284L89.2625 136.708Z" fill="#263238"/>
    <path d="M93.2623 132.896L90.9501 135.103L94.3628 138.679L96.675 136.472L93.2623 132.896Z" fill="#263238"/>
    <path d="M97.2472 129.078L94.9351 131.285L98.3478 134.861L100.66 132.654L97.2472 129.078Z" fill="#263238"/>
    <path d="M94.4952 142.186L92.1831 144.393L95.5958 147.969L97.9079 145.762L94.4952 142.186Z" fill="#263238"/>
    <path d="M98.4862 138.375L96.1741 140.581L99.5868 144.157L101.899 141.951L98.4862 138.375Z" fill="#263238"/>
    <path d="M102.486 134.563L100.174 136.77L103.587 140.346L105.899 138.139L102.486 134.563Z" fill="#263238"/>
    <path d="M99.7189 147.677L97.4068 149.884L100.819 153.46L103.132 151.253L99.7189 147.677Z" fill="#263238"/>
    <path d="M103.725 143.86L101.413 146.066L104.826 149.642L107.138 147.436L103.725 143.86Z" fill="#263238"/>
    <path d="M107.719 140.042L105.407 142.248L108.819 145.824L111.131 143.618L107.719 140.042Z" fill="#263238"/>
    <path d="M120.784 135.43L109.318 146.371L116.768 154.178L128.233 143.236L120.784 135.43Z" fill="white"/>
    <path d="M116.758 154.812L108.698 146.366L120.797 134.82L128.857 143.266L116.758 154.812ZM109.945 146.392L116.793 153.565L127.619 143.231L120.78 136.058L109.945 146.392Z" fill="#263238"/>
    <path d="M120.782 135.424L111.496 144.286L118.945 152.093L128.232 143.231L120.782 135.424Z" fill="white"/>
    <path d="M118.936 152.731L110.875 144.285L120.797 134.82L128.857 143.266L118.936 152.731ZM112.113 144.32L118.962 151.493L127.61 143.231L120.771 136.058L112.113 144.32Z" fill="#263238"/>
    <path d="M119.73 131.992L105.952 145.139L108.165 147.458L121.942 134.31L119.73 131.992Z" fill="white"/>
    <path d="M108.189 148.086L105.37 145.136L119.787 131.387L122.597 134.337L108.189 148.086ZM106.617 145.163L108.215 146.848L121.385 134.31L119.779 132.625L106.617 145.163Z" fill="#263238"/>
    <path d="M119.726 131.993L108.241 142.952L110.454 145.27L121.938 134.311L119.726 131.993Z" fill="white"/>
    <path d="M110.436 145.9L107.618 142.95L119.743 131.387L122.553 134.337L110.436 145.9ZM108.865 142.976L110.463 144.662L121.359 134.31L119.752 132.625L108.865 142.976Z" fill="#263238"/>
    <path d="M121.004 137.829L113.787 144.714L114.393 145.349L121.611 138.464L121.004 137.829Z" fill="#263238"/>
    <path d="M122.381 139.271L115.164 146.156L115.77 146.791L122.987 139.907L122.381 139.271Z" fill="#263238"/>
    <path d="M123.764 140.72L116.547 147.605L117.153 148.24L124.37 141.356L123.764 140.72Z" fill="#263238"/>
    <path d="M125.141 142.163L117.924 149.048L118.53 149.683L125.747 142.798L125.141 142.163Z" fill="#263238"/>
    <path opacity="0.19" d="M165.874 67.9849C165.874 67.9849 166.331 69.7409 167.13 58.8886C167.929 48.0363 160.764 45.9027 156.524 48.5543C152.283 51.206 150.694 49.0811 146.189 41.6619C141.685 34.2427 130.025 29.475 124.994 34.5061C119.963 39.5371 118.628 43.7867 115.213 41.1351C111.797 38.4835 107.258 31.591 101.165 32.6534C95.0712 33.7158 93.482 42.1887 91.0938 43.2511C88.7055 44.3135 83.1477 36.3587 76.7821 39.8093C70.4164 43.2599 70.4252 46.7017 69.6262 48.0275C68.8272 49.3533 65.921 44.5769 61.4168 45.1125C56.9125 45.6481 55.3145 50.1436 55.3145 50.1436H139.797C143.569 51.1501 147.158 52.7474 150.43 54.8761C156.26 58.5901 159.439 56.0087 161.291 55.7541C163.144 55.4995 162.854 67.9585 162.854 67.9585L165.874 67.9849Z" fill="black"/>
    <path opacity="0.19" d="M177.552 67.9849C177.552 67.9849 178.009 69.7409 178.799 58.8886C179.589 48.0363 172.468 45.9027 168.263 48.5543C164.057 51.206 162.468 49.0811 157.981 41.6619C153.494 34.2427 141.896 29.475 136.909 34.5061C131.922 39.5371 130.587 43.7867 127.154 41.1351C123.721 38.4835 119.252 31.591 113.185 32.6534C107.118 33.7158 105.537 42.1887 103.158 43.2511C100.778 44.3135 95.2555 36.3587 88.925 39.8093C82.5945 43.2599 82.5945 46.7017 81.8043 48.0275C81.0141 49.3533 78.1079 44.5769 73.63 45.1125C69.1521 45.6481 67.5629 50.1436 67.5629 50.1436H151.677C155.419 51.1665 158.975 52.7757 162.213 54.9112C168.008 58.6252 171.169 56.0438 173.013 55.7892C174.857 55.5346 174.567 67.9936 174.567 67.9936L177.552 67.9849Z" fill="black"/>
    <path opacity="0.19" d="M189.721 67.9849C189.721 67.9849 190.169 69.7409 190.959 58.8886C191.75 48.0363 184.638 45.9027 180.423 48.5543C176.209 51.206 174.62 49.0811 170.142 41.6619C165.664 34.2427 154.056 29.475 149.069 34.5061C144.082 39.5371 142.739 43.7867 139.314 41.1351C135.89 38.4835 131.412 31.591 125.336 32.6534C119.261 33.7158 117.689 42.1887 115.318 43.2511C112.948 44.3135 107.416 36.3587 101.077 39.8093C94.7375 43.2599 94.7463 46.7017 93.9561 48.0275C93.1659 49.3533 90.2684 44.5769 85.7817 45.1125C81.2951 45.6481 79.7146 50.1436 79.7146 50.1436H163.837C167.58 51.1648 171.136 52.7741 174.374 54.9112C180.177 58.6252 183.338 56.0438 185.182 55.7892C187.026 55.5346 186.736 67.9936 186.736 67.9936L189.721 67.9849Z" fill="black"/>
    <path d="M166.463 67.8268H161.95L159.693 123.958H168.71L166.463 67.8268Z" fill="#3BB54A"/>
    <path d="M169.176 124.397H159.237L161.528 67.3878H166.884L169.176 124.397ZM160.15 123.519H168.254L166.041 68.2658H162.371L160.15 123.519Z" fill="#263238"/>
    <path d="M166.428 68.3185H161.976C161.848 68.3185 161.725 68.2677 161.635 68.1771C161.544 68.0865 161.493 67.9637 161.493 67.8356C161.493 67.7076 161.544 67.5847 161.635 67.4942C161.725 67.4036 161.848 67.3527 161.976 67.3527H166.428C166.491 67.3515 166.555 67.3632 166.614 67.387C166.673 67.4109 166.727 67.4464 166.772 67.4915C166.817 67.5366 166.852 67.5903 166.876 67.6494C166.9 67.7085 166.912 67.7719 166.911 67.8356C166.911 67.9637 166.86 68.0865 166.769 68.1771C166.679 68.2677 166.556 68.3185 166.428 68.3185Z" fill="white"/>
    <path d="M166.428 68.7575H161.976C161.855 68.7575 161.735 68.7337 161.623 68.6874C161.511 68.641 161.41 68.5731 161.324 68.4875C161.239 68.4019 161.171 68.3003 161.124 68.1884C161.078 68.0766 161.054 67.9567 161.054 67.8356C161.054 67.7145 161.078 67.5947 161.124 67.4828C161.171 67.371 161.239 67.2693 161.324 67.1837C161.41 67.0981 161.511 67.0302 161.623 66.9839C161.735 66.9375 161.855 66.9137 161.976 66.9137H166.428C166.672 66.9137 166.907 67.0108 167.08 67.1837C167.252 67.3566 167.35 67.5911 167.35 67.8356C167.35 68.0801 167.252 68.3146 167.08 68.4875C166.907 68.6604 166.672 68.7575 166.428 68.7575ZM161.976 67.7917V67.8795H166.428L161.976 67.7917Z" fill="#263238"/>
    <path d="M161.844 70.3994L161.765 72.4277H166.647L166.559 70.3994H161.844Z" fill="white"/>
    <path d="M167.104 72.8667H161.309L161.423 69.9604H167.016L167.104 72.8667ZM162.222 71.9886H166.191L166.138 70.8384H162.266L162.222 71.9886Z" fill="#263238"/>
    <path d="M168.403 116.232L168.324 114.204H160.088L160.009 116.232H168.403Z" fill="white"/>
    <path d="M168.86 116.671H159.553L159.667 113.765H168.772L168.86 116.671ZM160.466 115.793H167.947L167.903 114.643H160.51L160.466 115.793Z" fill="#263238"/>
    <path d="M160.589 101.692L160.51 103.711H167.903L167.824 101.692H160.589Z" fill="white"/>
    <path d="M168.359 104.15H160.053L160.167 101.253H168.245L168.359 104.15ZM160.966 103.272H167.446L167.402 102.131H161.01L160.966 103.272Z" fill="#263238"/>
    <path d="M160.343 107.943L160.255 109.972H168.149L168.07 107.943H160.343Z" fill="white"/>
    <path d="M168.614 110.411H159.834L159.957 107.504H168.526L168.614 110.411ZM160.712 109.533H167.736L167.692 108.382H160.808L160.712 109.533Z" fill="#263238"/>
    <path d="M160.843 95.4317L160.764 97.4599H167.648L167.569 95.4317H160.843Z" fill="white"/>
    <path d="M168.105 97.8989H160.308L160.422 94.9927H167.991L168.105 97.8989ZM161.221 97.0209H167.192V95.8707H161.309L161.221 97.0209Z" fill="#263238"/>
    <path d="M161.599 76.6597L161.511 78.6791H166.893L166.814 76.6597H161.599Z" fill="white"/>
    <path d="M167.35 79.1181H161.054L161.177 76.2207H167.235L167.35 79.1181ZM161.967 78.2401H166.436L166.393 77.0987H162.002L161.967 78.2401Z" fill="#263238"/>
    <path d="M161.089 89.1714L161.01 91.1997H167.402L167.314 89.1714H161.089Z" fill="white"/>
    <path d="M167.894 91.6387H160.589L160.703 88.7324H167.727L167.894 91.6387ZM161.502 90.7606H166.981L166.928 89.6104H161.546L161.502 90.7606Z" fill="#263238"/>
    <path d="M161.344 82.92L161.265 84.9394H167.148L167.069 82.92H161.344Z" fill="white"/>
    <path d="M167.604 85.3784H160.808L160.922 82.481H167.49L167.604 85.3784ZM161.721 84.5004H166.691V83.359H161.748L161.721 84.5004Z" fill="#263238"/>
    <path d="M178.606 67.8268H174.102L171.845 123.958H180.862L178.606 67.8268Z" fill="#3BB54A"/>
    <path d="M181.319 124.397H171.406L173.698 67.3878H179.045L181.319 124.397ZM172.302 123.519H180.406L178.184 68.2658H174.523L172.302 123.519Z" fill="#263238"/>
    <path d="M178.579 68.3185H174.128C174 68.3185 173.877 68.2677 173.786 68.1771C173.696 68.0865 173.645 67.9637 173.645 67.8356C173.644 67.7719 173.655 67.7085 173.679 67.6494C173.703 67.5903 173.739 67.5366 173.784 67.4915C173.829 67.4464 173.883 67.4109 173.942 67.387C174.001 67.3632 174.064 67.3515 174.128 67.3527H178.579C178.707 67.3527 178.83 67.4036 178.921 67.4942C179.011 67.5847 179.062 67.7076 179.062 67.8356C179.062 67.9637 179.011 68.0865 178.921 68.1771C178.83 68.2677 178.707 68.3185 178.579 68.3185Z" fill="white"/>
    <path d="M178.579 68.7575H174.128C173.883 68.7575 173.649 68.6604 173.476 68.4875C173.303 68.3146 173.206 68.0801 173.206 67.8356C173.206 67.5911 173.303 67.3566 173.476 67.1837C173.649 67.0108 173.883 66.9137 174.128 66.9137H178.579C178.824 66.9137 179.058 67.0108 179.231 67.1837C179.404 67.3566 179.501 67.5911 179.501 67.8356C179.501 68.0801 179.404 68.3146 179.231 68.4875C179.058 68.6604 178.824 68.7575 178.579 68.7575ZM174.128 67.7917V67.8795H178.579H178.623L174.128 67.7917Z" fill="#263238"/>
    <path d="M173.996 70.3994L173.917 72.4277H178.79L178.711 70.3994H173.996Z" fill="white"/>
    <path d="M179.247 72.8667H173.461L173.575 69.9604H179.133L179.247 72.8667ZM174.374 71.9886H178.334L178.29 70.8384H174.418L174.374 71.9886Z" fill="#263238"/>
    <path d="M180.555 116.232L180.467 114.204H172.231L172.152 116.232H180.555Z" fill="white"/>
    <path d="M181.012 116.671H171.696L171.81 113.765H180.889L181.012 116.671ZM172.609 115.793H180.098L180.046 114.643H172.653L172.609 115.793Z" fill="#263238"/>
    <path d="M172.741 101.692L172.653 103.711H180.046L179.967 101.692H172.741Z" fill="white"/>
    <path d="M180.502 104.15H172.196L172.319 101.253H180.388L180.502 104.15ZM173.109 103.272H179.589L179.545 102.131H173.162L173.109 103.272Z" fill="#263238"/>
    <path d="M172.486 107.943L172.407 109.972H180.3L180.221 107.943H172.486Z" fill="white"/>
    <path d="M180.757 110.411H171.977L172.091 107.504H180.669L180.757 110.411ZM172.855 109.533H179.879L179.835 108.382H172.943L172.855 109.533Z" fill="#263238"/>
    <path d="M172.986 95.4317L172.907 97.4599H179.8L179.712 95.4317H172.986Z" fill="white"/>
    <path d="M180.256 97.8989H172.451L172.565 94.9927H180.133L180.256 97.8989ZM173.364 97.0209H179.308L179.255 95.8707H173.373L173.364 97.0209Z" fill="#263238"/>
    <path d="M173.742 76.6597L173.663 78.6791H179.045L178.966 76.6597H173.742Z" fill="white"/>
    <path d="M179.501 79.1181H173.206L173.32 76.2207H179.387L179.501 79.1181ZM174.119 78.2401H178.588L178.544 77.0987H174.154L174.119 78.2401Z" fill="#263238"/>
    <path d="M173.241 89.1714L173.162 91.1997H179.545L179.466 89.1714H173.241Z" fill="white"/>
    <path d="M180.002 91.6387H172.705L172.82 88.7324H179.888L180.002 91.6387ZM173.619 90.7606H179.089L179.045 89.6104H173.663L173.619 90.7606Z" fill="#263238"/>
    <path d="M173.496 82.92L173.408 84.9394H179.291L179.212 82.92H173.496Z" fill="white"/>
    <path d="M179.756 85.3784H172.951L173.074 82.481H179.633L179.756 85.3784ZM173.864 84.5004H178.834V83.359H173.961L173.864 84.5004Z" fill="#263238"/>
    <path d="M190.758 67.8268H186.244L183.988 123.958H193.005L190.758 67.8268Z" fill="#3BB54A"/>
    <path d="M193.462 124.397H183.531L185.823 67.3878H191.179L193.462 124.397ZM184.445 123.519H192.549L190.336 68.2658H186.666L184.445 123.519Z" fill="#263238"/>
    <path d="M190.722 68.3185H186.271C186.143 68.3185 186.02 68.2677 185.929 68.1771C185.839 68.0865 185.788 67.9637 185.788 67.8356C185.788 67.7076 185.839 67.5847 185.929 67.4942C186.02 67.4036 186.143 67.3527 186.271 67.3527H190.722C190.786 67.3515 190.849 67.3632 190.909 67.387C190.968 67.4109 191.021 67.4464 191.066 67.4915C191.112 67.5366 191.147 67.5903 191.171 67.6494C191.195 67.7085 191.206 67.7719 191.205 67.8356C191.205 67.9637 191.154 68.0865 191.064 68.1771C190.973 68.2677 190.85 68.3185 190.722 68.3185Z" fill="white"/>
    <path d="M190.722 68.7575H186.271C186.026 68.7575 185.792 68.6604 185.619 68.4875C185.446 68.3146 185.349 68.0801 185.349 67.8356C185.349 67.5911 185.446 67.3566 185.619 67.1837C185.792 67.0108 186.026 66.9137 186.271 66.9137H190.722C190.967 66.9137 191.201 67.0108 191.374 67.1837C191.547 67.3566 191.644 67.5911 191.644 67.8356C191.644 68.0801 191.547 68.3146 191.374 68.4875C191.201 68.6604 190.967 68.7575 190.722 68.7575ZM186.271 67.7917V67.8795H190.722H190.766L186.271 67.7917Z" fill="#263238"/>
    <path d="M186.139 70.3994L186.06 72.4277H190.942L190.854 70.3994H186.139Z" fill="white"/>
    <path d="M191.398 72.8667H185.604L185.718 69.9604H191.276L191.398 72.8667ZM186.517 71.9886H190.485L190.433 70.8384H186.561L186.517 71.9886Z" fill="#263238"/>
    <path d="M192.698 116.232L192.619 114.204H184.383L184.304 116.232H192.698Z" fill="white"/>
    <path d="M193.154 116.671H183.848L183.962 113.765H193.04L193.154 116.671ZM184.761 115.793H192.241L192.197 114.643H184.805L184.761 115.793Z" fill="#263238"/>
    <path d="M184.884 101.692L184.805 103.711H192.197L192.118 101.692H184.884Z" fill="white"/>
    <path d="M192.654 104.15H184.348L184.462 101.253H192.54L192.654 104.15ZM185.261 103.272H191.741L191.697 102.131H185.305L185.261 103.272Z" fill="#263238"/>
    <path d="M184.629 107.943L184.55 109.972H192.443L192.364 107.943H184.629Z" fill="white"/>
    <path d="M192.9 110.411H184.12L184.243 107.504H192.812L192.9 110.411ZM184.998 109.533H191.978L191.934 108.382H185.05L184.998 109.533Z" fill="#263238"/>
    <path d="M185.138 95.4317L185.059 97.4599H191.943L191.864 95.4317H185.138Z" fill="white"/>
    <path d="M192.399 97.8989H184.576L184.699 94.9927H192.268L192.399 97.8989ZM185.516 97.0209H191.486L191.442 95.8707H185.56L185.516 97.0209Z" fill="#263238"/>
    <path d="M185.893 76.6597L185.805 78.6791H191.188L191.109 76.6597H185.893Z" fill="white"/>
    <path d="M191.644 79.1181H185.349L185.472 76.2207H191.53L191.644 79.1181ZM186.262 78.2401H190.722L190.678 77.0987H186.288L186.262 78.2401Z" fill="#263238"/>
    <path d="M185.384 89.1714L185.305 91.1997H191.697L191.609 89.1714H185.384Z" fill="white"/>
    <path d="M192.154 91.6387H184.848L184.963 88.7324H192.031L192.154 91.6387ZM185.762 90.7606H191.24L191.188 89.6104H185.805L185.762 90.7606Z" fill="#263238"/>
    <path d="M185.639 82.92L185.56 84.9394H191.442L191.363 82.92H185.639Z" fill="white"/>
    <path d="M191.899 85.3784H185.103L185.217 82.481H191.785L191.899 85.3784ZM186.016 84.5004H190.986L190.942 83.359H186.06L186.016 84.5004Z" fill="#263238"/>
    <path d="M141.43 111.122H123.484V149.403H141.43V111.122Z" fill="#263238"/>
    <path d="M141.43 149.842H123.484C123.367 149.842 123.256 149.796 123.173 149.714C123.091 149.632 123.045 149.52 123.045 149.403V111.122C123.045 111.005 123.091 110.894 123.173 110.811C123.256 110.729 123.367 110.683 123.484 110.683H141.43C141.547 110.683 141.659 110.729 141.741 110.811C141.823 110.894 141.869 111.005 141.869 111.122V149.403C141.867 149.519 141.82 149.63 141.738 149.711C141.657 149.793 141.546 149.84 141.43 149.842ZM123.923 148.964H140.991V111.561H123.923V148.964Z" fill="#263238"/>
    <path d="M140.623 106.012L150.342 111.693H148.472L138.823 106.863L140.623 106.012Z" fill="white"/>
    <path d="M151.967 112.132H148.376L137.839 106.863L140.675 105.529L151.967 112.132ZM148.578 111.254H148.718L140.605 106.512L139.824 106.872L148.578 111.254Z" fill="#263238"/>
    <path d="M149.324 149.403H131.377V111.122L140.623 106.012L149.324 111.122V149.403Z" fill="#3BB54A"/>
    <path d="M149.324 149.842H131.377C131.261 149.84 131.151 149.793 131.069 149.711C130.987 149.63 130.94 149.519 130.938 149.403V111.122C130.939 111.043 130.96 110.966 131 110.898C131.041 110.83 131.098 110.774 131.166 110.736L140.412 105.634C140.479 105.596 140.554 105.575 140.631 105.575C140.709 105.575 140.784 105.596 140.851 105.634L149.543 110.744C149.611 110.781 149.667 110.836 149.706 110.902C149.745 110.969 149.764 111.045 149.763 111.122V149.403C149.763 149.52 149.717 149.632 149.634 149.714C149.552 149.796 149.44 149.842 149.324 149.842ZM131.816 148.964H148.885V111.376L140.623 106.521L131.843 111.376L131.816 148.964Z" fill="#263238"/>
    <path d="M122.097 111.947H129.999L140.623 106.012H132.624L122.097 111.947Z" fill="#8F8F8F"/>
    <path d="M129.999 112.386H122.097C121.999 112.388 121.904 112.356 121.826 112.298C121.748 112.239 121.692 112.156 121.666 112.061C121.641 111.968 121.648 111.868 121.686 111.779C121.724 111.69 121.792 111.616 121.877 111.57L132.413 105.634C132.48 105.597 132.556 105.575 132.633 105.573H140.675C140.772 105.575 140.866 105.609 140.942 105.669C141.018 105.73 141.072 105.813 141.097 105.906C141.122 106 141.115 106.1 141.077 106.189C141.039 106.278 140.972 106.352 140.886 106.398L130.253 112.334C130.176 112.378 130.087 112.396 129.999 112.386ZM123.774 111.508H129.92L138.919 106.451H132.773L123.774 111.508Z" fill="#263238"/>
    <path d="M142.01 109.331H139.113V111.956H142.01V109.331Z" fill="#263238"/>
    <path d="M142.431 112.386H138.656V108.874H142.431V112.386ZM139.534 111.508H141.553V109.752H139.534V111.508Z" fill="#263238"/>
    <path d="M192.268 117.066H134.248V149.395H192.268V117.066Z" fill="#263238"/>
    <path d="M192.268 149.842H134.248C134.132 149.842 134.02 149.796 133.938 149.714C133.856 149.632 133.809 149.52 133.809 149.403V117.066C133.809 116.95 133.856 116.838 133.938 116.756C134.02 116.673 134.132 116.627 134.248 116.627H192.268C192.383 116.629 192.494 116.676 192.576 116.758C192.657 116.84 192.704 116.95 192.707 117.066V149.403C192.704 149.519 192.657 149.63 192.576 149.711C192.494 149.793 192.383 149.84 192.268 149.842ZM134.687 148.964H191.829V117.505H134.687V148.964Z" fill="#263238"/>
    <path d="M221.207 117.066H159.781V149.395H221.207V117.066Z" fill="white"/>
    <path d="M221.207 149.842H159.746C159.629 149.842 159.518 149.796 159.435 149.714C159.353 149.632 159.307 149.52 159.307 149.403V117.066C159.307 116.95 159.353 116.838 159.435 116.756C159.518 116.673 159.629 116.627 159.746 116.627H221.207C221.323 116.629 221.433 116.676 221.515 116.758C221.597 116.84 221.644 116.95 221.646 117.066V149.403C221.644 149.519 221.597 149.63 221.515 149.711C221.433 149.793 221.323 149.84 221.207 149.842ZM160.22 148.964H220.803V117.505H160.22V148.964Z" fill="#263238"/>
    <path d="M177.763 129.455H167.639V149.395H177.763V129.455Z" fill="white"/>
    <path d="M177.763 149.842H167.639C167.523 149.842 167.411 149.796 167.329 149.714C167.247 149.632 167.2 149.52 167.2 149.403V129.455C167.2 129.338 167.247 129.227 167.329 129.144C167.411 129.062 167.523 129.016 167.639 129.016H177.763C177.879 129.016 177.991 129.062 178.073 129.144C178.156 129.227 178.202 129.338 178.202 129.455V149.403C178.202 149.52 178.156 149.632 178.073 149.714C177.991 149.796 177.879 149.842 177.763 149.842ZM168.105 148.964H177.35V129.894H168.078L168.105 148.964Z" fill="#263238"/>
    <path d="M176.103 129.455H167.639V149.395H176.103V129.455Z" fill="#263238"/>
    <path d="M176.103 149.842H167.639C167.523 149.842 167.411 149.796 167.329 149.714C167.247 149.632 167.2 149.52 167.2 149.403V129.455C167.2 129.338 167.247 129.227 167.329 129.144C167.411 129.062 167.523 129.016 167.639 129.016H176.103C176.219 129.018 176.329 129.065 176.411 129.147C176.493 129.229 176.54 129.339 176.542 129.455V149.403C176.54 149.519 176.493 149.63 176.411 149.711C176.329 149.793 176.219 149.84 176.103 149.842ZM168.078 148.964H175.664V129.894H168.078V148.964Z" fill="#263238"/>
    <path d="M195.894 129.455H185.77V149.395H195.894V129.455Z" fill="white"/>
    <path d="M195.894 149.842H185.77C185.654 149.842 185.542 149.796 185.46 149.714C185.378 149.632 185.331 149.52 185.331 149.403V129.455C185.331 129.338 185.378 129.227 185.46 129.144C185.542 129.062 185.654 129.016 185.77 129.016H195.894C196.01 129.018 196.12 129.065 196.202 129.147C196.284 129.229 196.331 129.339 196.333 129.455V149.403C196.331 149.519 196.284 149.63 196.202 149.711C196.12 149.793 196.01 149.84 195.894 149.842ZM186.236 148.964H195.481V129.894H186.209L186.236 148.964Z" fill="#263238"/>
    <path d="M194.234 129.455H185.77V149.395H194.234V129.455Z" fill="#263238"/>
    <path d="M194.234 149.842H185.77C185.654 149.842 185.542 149.796 185.46 149.714C185.378 149.632 185.331 149.52 185.331 149.403V129.455C185.331 129.338 185.378 129.227 185.46 129.144C185.542 129.062 185.654 129.016 185.77 129.016H194.234C194.35 129.018 194.461 129.065 194.542 129.147C194.624 129.229 194.671 129.339 194.673 129.455V149.403C194.671 149.519 194.624 149.63 194.542 149.711C194.461 149.793 194.35 149.84 194.234 149.842ZM186.209 148.964H193.795V129.894H186.209V148.964Z" fill="#263238"/>
    <path d="M214.025 129.455H203.901V149.395H214.025V129.455Z" fill="white"/>
    <path d="M214.025 149.842H203.893C203.776 149.842 203.665 149.796 203.582 149.714C203.5 149.632 203.454 149.52 203.454 149.403V129.455C203.454 129.338 203.5 129.227 203.582 129.144C203.665 129.062 203.776 129.016 203.893 129.016H214.016C214.132 129.018 214.242 129.065 214.324 129.147C214.406 129.229 214.453 129.339 214.455 129.455V149.403C214.453 149.518 214.407 149.627 214.327 149.708C214.247 149.79 214.139 149.838 214.025 149.842ZM204.367 148.964H213.551V129.894H204.34L204.367 148.964Z" fill="#263238"/>
    <path d="M212.366 129.455H203.901V149.395H212.366V129.455Z" fill="#263238"/>
    <path d="M212.357 149.842H203.893C203.776 149.842 203.665 149.796 203.582 149.714C203.5 149.632 203.454 149.52 203.454 149.403V129.455C203.454 129.338 203.5 129.227 203.582 129.144C203.665 129.062 203.776 129.016 203.893 129.016H212.348C212.464 129.016 212.576 129.062 212.658 129.144C212.741 129.227 212.787 129.338 212.787 129.455V149.403C212.787 149.518 212.742 149.629 212.662 149.711C212.581 149.793 212.472 149.84 212.357 149.842ZM204.34 148.964H211.918V129.894H204.34V148.964Z" fill="#263238"/>
    <path d="M142.098 120.771H136.575V125.837H142.098V120.771Z" fill="white"/>
    <path d="M142.098 126.276H136.575C136.459 126.274 136.349 126.227 136.267 126.145C136.185 126.064 136.138 125.953 136.136 125.837V120.771C136.136 120.655 136.182 120.543 136.265 120.461C136.347 120.379 136.459 120.332 136.575 120.332H142.098C142.214 120.332 142.326 120.379 142.408 120.461C142.491 120.543 142.537 120.655 142.537 120.771V125.837C142.537 125.954 142.491 126.066 142.408 126.148C142.326 126.23 142.214 126.276 142.098 126.276ZM137.014 125.398H141.659V121.21H137.014V125.398Z" fill="#263238"/>
    <path d="M149.57 120.771H144.047V125.837H149.57V120.771Z" fill="white"/>
    <path d="M149.57 126.276H144.047C143.931 126.276 143.819 126.23 143.737 126.148C143.654 126.066 143.608 125.954 143.608 125.837V120.771C143.608 120.655 143.654 120.543 143.737 120.461C143.819 120.379 143.931 120.332 144.047 120.332H149.57C149.686 120.332 149.798 120.379 149.88 120.461C149.962 120.543 150.009 120.655 150.009 120.771V125.837C150.006 125.953 149.96 126.064 149.878 126.145C149.796 126.227 149.685 126.274 149.57 126.276ZM144.486 125.398H149.131V121.21H144.486V125.398Z" fill="#263238"/>
    <path d="M157.033 120.771H151.51V125.837H157.033V120.771Z" fill="white"/>
    <path d="M157.033 126.276H151.51C151.394 126.276 151.282 126.23 151.2 126.148C151.117 126.066 151.071 125.954 151.071 125.837V120.771C151.071 120.655 151.117 120.543 151.2 120.461C151.282 120.379 151.394 120.332 151.51 120.332H157.033C157.149 120.332 157.261 120.379 157.343 120.461C157.426 120.543 157.472 120.655 157.472 120.771V125.837C157.47 125.953 157.423 126.064 157.341 126.145C157.259 126.227 157.149 126.274 157.033 126.276ZM151.949 125.398H156.594V121.21H151.949V125.398Z" fill="#263238"/>
    <path d="M176.7 120.771H168.456V125.837H176.7V120.771Z" fill="white"/>
    <path d="M176.674 126.276H168.43C168.313 126.276 168.201 126.23 168.119 126.148C168.037 126.066 167.991 125.954 167.991 125.837V120.771C167.991 120.655 168.037 120.543 168.119 120.461C168.201 120.379 168.313 120.332 168.43 120.332H176.674C176.791 120.332 176.902 120.379 176.985 120.461C177.067 120.543 177.113 120.655 177.113 120.771V125.837C177.113 125.954 177.067 126.066 176.985 126.148C176.902 126.23 176.791 126.276 176.674 126.276ZM168.869 125.398H176.235V121.21H168.869V125.398Z" fill="#263238"/>
    <path d="M176.226 120.771H167.982V125.837H176.226V120.771Z" fill="white"/>
    <path d="M176.235 126.276H167.982C167.866 126.274 167.756 126.227 167.674 126.145C167.592 126.064 167.545 125.953 167.543 125.837V120.771C167.543 120.655 167.589 120.543 167.671 120.461C167.754 120.379 167.865 120.332 167.982 120.332H176.235C176.352 120.332 176.463 120.379 176.546 120.461C176.628 120.543 176.674 120.655 176.674 120.771V125.837C176.672 125.953 176.625 126.064 176.543 126.145C176.461 126.227 176.351 126.274 176.235 126.276ZM168.421 125.398H175.796V121.21H168.421V125.398Z" fill="#263238"/>
    <path d="M194.814 120.771H186.569V125.837H194.814V120.771Z" fill="white"/>
    <path d="M194.814 126.276H186.569C186.453 126.276 186.341 126.23 186.259 126.148C186.177 126.066 186.13 125.954 186.13 125.837V120.771C186.13 120.655 186.177 120.543 186.259 120.461C186.341 120.379 186.453 120.332 186.569 120.332H194.814C194.93 120.332 195.042 120.379 195.124 120.461C195.207 120.543 195.253 120.655 195.253 120.771V125.837C195.253 125.954 195.207 126.066 195.124 126.148C195.042 126.23 194.93 126.276 194.814 126.276ZM187.008 125.398H194.375V121.21H187.008V125.398Z" fill="#263238"/>
    <path d="M194.34 120.771H186.095V125.837H194.34V120.771Z" fill="white"/>
    <path d="M194.349 126.276H186.095C185.98 126.274 185.869 126.227 185.787 126.145C185.705 126.064 185.658 125.953 185.656 125.837V120.771C185.656 120.655 185.702 120.543 185.785 120.461C185.867 120.379 185.979 120.332 186.095 120.332H194.349C194.465 120.332 194.577 120.379 194.659 120.461C194.741 120.543 194.788 120.655 194.788 120.771V125.837C194.785 125.953 194.738 126.064 194.657 126.145C194.575 126.227 194.464 126.274 194.349 126.276ZM186.534 125.398H193.91V121.21H186.534V125.398Z" fill="#263238"/>
    <path d="M212.927 120.771H204.683V125.837H212.927V120.771Z" fill="white"/>
    <path d="M212.927 126.276H204.683C204.566 126.276 204.455 126.23 204.372 126.148C204.29 126.066 204.244 125.954 204.244 125.837V120.771C204.244 120.655 204.29 120.543 204.372 120.461C204.455 120.379 204.566 120.332 204.683 120.332H212.927C213.044 120.332 213.156 120.379 213.238 120.461C213.32 120.543 213.366 120.655 213.366 120.771V125.837C213.366 125.954 213.32 126.066 213.238 126.148C213.156 126.23 213.044 126.276 212.927 126.276ZM205.122 125.398H212.488V121.21H205.122V125.398Z" fill="#263238"/>
    <path d="M212.453 120.771H204.209V125.837H212.453V120.771Z" fill="white"/>
    <path d="M212.462 126.276H204.209C204.093 126.274 203.983 126.227 203.901 126.145C203.819 126.064 203.772 125.953 203.77 125.837V120.771C203.77 120.655 203.816 120.543 203.898 120.461C203.981 120.379 204.092 120.332 204.209 120.332H212.462C212.579 120.332 212.69 120.379 212.773 120.461C212.855 120.543 212.901 120.655 212.901 120.771V125.837C212.901 125.954 212.855 126.066 212.773 126.148C212.69 126.23 212.579 126.276 212.462 126.276ZM204.648 125.398H212.023V121.21H204.648V125.398Z" fill="#263238"/>
    <path d="M133.441 125.776H126.092V130.034H133.441V125.776Z" fill="#3BB54A"/>
    <path d="M133.441 130.473H126.092C125.976 130.471 125.865 130.424 125.784 130.342C125.702 130.26 125.655 130.15 125.653 130.034V125.776C125.655 125.66 125.702 125.55 125.784 125.468C125.865 125.386 125.976 125.339 126.092 125.337H133.441C133.557 125.337 133.669 125.383 133.751 125.466C133.833 125.548 133.88 125.66 133.88 125.776V130.034C133.88 130.151 133.833 130.262 133.751 130.345C133.669 130.427 133.557 130.473 133.441 130.473ZM126.531 129.595H133.002V126.215H126.531V129.595Z" fill="#263238"/>
    <path d="M135.758 125.776H128.409V130.034H135.758V125.776Z" fill="#3BB54A"/>
    <path d="M135.758 130.473H128.383C128.267 130.473 128.155 130.427 128.073 130.345C127.99 130.262 127.944 130.151 127.944 130.034V125.776C127.944 125.66 127.99 125.548 128.073 125.466C128.155 125.383 128.267 125.337 128.383 125.337H135.732C135.848 125.339 135.958 125.386 136.04 125.468C136.122 125.55 136.169 125.66 136.171 125.776V130.034C136.169 130.146 136.126 130.252 136.05 130.334C135.973 130.415 135.87 130.465 135.758 130.473ZM128.848 129.595H135.319V126.215H128.848V129.595Z" fill="#263238"/>
    <path d="M142.423 128.173H124.309V149.403H142.423V128.173Z" fill="#263238"/>
    <path d="M142.431 149.842H124.309C124.193 149.842 124.081 149.796 123.999 149.714C123.916 149.632 123.87 149.52 123.87 149.403V128.173C123.87 128.057 123.916 127.945 123.999 127.863C124.081 127.78 124.193 127.734 124.309 127.734H142.431C142.548 127.734 142.66 127.78 142.742 127.863C142.824 127.945 142.87 128.057 142.87 128.173V149.403C142.87 149.52 142.824 149.632 142.742 149.714C142.66 149.796 142.548 149.842 142.431 149.842ZM124.757 148.964H141.992V128.63H124.748L124.757 148.964Z" fill="#263238"/>
    <path d="M155.865 128.173H137.752V149.403H155.865V128.173Z" fill="#3BB54A"/>
    <path d="M155.865 149.842H137.752C137.635 149.842 137.524 149.796 137.441 149.714C137.359 149.632 137.313 149.52 137.313 149.403V128.173C137.313 128.057 137.359 127.945 137.441 127.863C137.524 127.78 137.635 127.734 137.752 127.734H155.865C155.982 127.734 156.093 127.78 156.176 127.863C156.258 127.945 156.304 128.057 156.304 128.173V149.403C156.302 149.519 156.255 149.63 156.173 149.711C156.091 149.793 155.981 149.84 155.865 149.842ZM138.191 148.964H155.426V128.63H138.191V148.964Z" fill="#263238"/>
    <path d="M149.245 141.607H144.372V149.395H149.245V141.607Z" fill="#263238"/>
    <path d="M149.236 149.842H144.372C144.255 149.842 144.144 149.796 144.061 149.714C143.979 149.631 143.933 149.52 143.933 149.403V141.607C143.933 141.49 143.979 141.379 144.061 141.296C144.144 141.214 144.255 141.168 144.372 141.168H149.236C149.352 141.168 149.464 141.214 149.546 141.296C149.629 141.379 149.675 141.49 149.675 141.607V149.403C149.675 149.52 149.629 149.631 149.546 149.714C149.464 149.796 149.352 149.842 149.236 149.842ZM144.846 148.964H148.832V142.046H144.846V148.964Z" fill="#263238"/>
    <path d="M135.996 130.702H132.984V145.119H135.996V130.702Z" fill="#3BB54A"/>
    <path d="M135.996 145.558H132.984C132.868 145.558 132.756 145.511 132.674 145.429C132.591 145.347 132.545 145.235 132.545 145.119V130.702C132.545 130.585 132.591 130.474 132.674 130.391C132.756 130.309 132.868 130.263 132.984 130.263H135.996C136.111 130.265 136.222 130.312 136.303 130.394C136.385 130.476 136.432 130.586 136.435 130.702V145.119C136.432 145.234 136.385 145.345 136.303 145.427C136.222 145.508 136.111 145.555 135.996 145.558ZM133.423 144.68H135.557V131.141H133.423V144.68Z" fill="#263238"/>
    <path d="M132.141 130.702H129.129V145.119H132.141V130.702Z" fill="#3BB54A"/>
    <path d="M132.141 145.558H129.129C129.014 145.555 128.903 145.508 128.822 145.427C128.74 145.345 128.693 145.234 128.69 145.119V130.702C128.693 130.586 128.74 130.476 128.822 130.394C128.903 130.312 129.014 130.265 129.129 130.263H132.141C132.257 130.263 132.369 130.309 132.451 130.391C132.534 130.474 132.58 130.585 132.58 130.702V145.119C132.58 145.235 132.534 145.347 132.451 145.429C132.369 145.511 132.257 145.558 132.141 145.558ZM129.568 144.68H131.702V131.141H129.568V144.68Z" fill="#263238"/>
    <path d="M128.295 130.702H125.284V145.119H128.295V130.702Z" fill="#3BB54A"/>
    <path d="M128.295 145.558H125.284C125.167 145.558 125.056 145.511 124.973 145.429C124.891 145.347 124.845 145.235 124.845 145.119V130.702C124.845 130.585 124.891 130.474 124.973 130.391C125.056 130.309 125.167 130.263 125.284 130.263H128.295C128.412 130.263 128.523 130.309 128.606 130.391C128.688 130.474 128.734 130.585 128.734 130.702V145.119C128.734 145.235 128.688 145.347 128.606 145.429C128.523 145.511 128.412 145.558 128.295 145.558ZM125.723 144.68H127.856V131.141H125.749L125.723 144.68Z" fill="#263238"/>
    <path d="M166.138 120.367H161.8V149.272H166.138V120.367Z" fill="white"/>
    <path d="M166.138 149.702H161.809C161.693 149.702 161.581 149.656 161.499 149.573C161.417 149.491 161.37 149.379 161.37 149.263V120.367C161.37 120.251 161.417 120.139 161.499 120.057C161.581 119.975 161.693 119.928 161.809 119.928H166.138C166.254 119.928 166.366 119.975 166.448 120.057C166.531 120.139 166.577 120.251 166.577 120.367V149.272C166.575 149.387 166.527 149.496 166.445 149.576C166.363 149.657 166.253 149.702 166.138 149.702ZM162.248 148.824H165.699V120.806H162.248V148.824Z" fill="#263238"/>
    <path d="M166.823 120.367H162.485V149.272H166.823V120.367Z" fill="#3BB54A"/>
    <path d="M167.262 149.702H162.046V119.928H167.262V149.702ZM162.924 148.824H166.384V120.806H162.924V148.824Z" fill="#263238"/>
    <path d="M183.821 120.367H179.484V149.272H183.821V120.367Z" fill="white"/>
    <path d="M183.821 149.702H179.484C179.368 149.7 179.258 149.653 179.176 149.571C179.094 149.489 179.047 149.379 179.045 149.263V120.367C179.047 120.252 179.094 120.141 179.176 120.059C179.258 119.978 179.368 119.931 179.484 119.928H183.821C183.938 119.928 184.049 119.975 184.132 120.057C184.214 120.139 184.26 120.251 184.26 120.367V149.272C184.258 149.387 184.211 149.496 184.129 149.576C184.046 149.657 183.936 149.702 183.821 149.702ZM179.923 148.824H183.382V120.806H179.923V148.824Z" fill="#263238"/>
    <path d="M184.506 120.367H180.169V149.272H184.506V120.367Z" fill="#3BB54A"/>
    <path d="M184.936 149.702H179.73V119.928H184.936V149.702ZM180.608 148.824H184.058V120.806H180.608V148.824Z" fill="#263238"/>
    <path d="M201.926 120.367H197.588V149.272H201.926V120.367Z" fill="white"/>
    <path d="M201.926 149.702H197.588C197.473 149.7 197.362 149.653 197.281 149.571C197.199 149.489 197.152 149.379 197.149 149.263V120.367C197.152 120.252 197.199 120.141 197.281 120.059C197.362 119.978 197.473 119.931 197.588 119.928H201.926C202.042 119.928 202.154 119.975 202.236 120.057C202.319 120.139 202.365 120.251 202.365 120.367V149.272C202.363 149.387 202.315 149.496 202.233 149.576C202.151 149.657 202.041 149.702 201.926 149.702ZM198.027 148.824H201.487V120.806H198.027V148.824Z" fill="#263238"/>
    <path d="M202.611 120.367H198.273V149.272H202.611V120.367Z" fill="#3BB54A"/>
    <path d="M203.015 149.702H197.834V119.928H203.015V149.702ZM198.677 148.824H202.137V120.806H198.712L198.677 148.824Z" fill="#263238"/>
    <path d="M220.057 120.367H215.72V149.272H220.057V120.367Z" fill="white"/>
    <path d="M220.057 149.702H215.72C215.603 149.702 215.491 149.656 215.409 149.573C215.327 149.491 215.281 149.379 215.281 149.263V120.367C215.281 120.251 215.327 120.139 215.409 120.057C215.491 119.975 215.603 119.928 215.72 119.928H220.057C220.173 119.931 220.283 119.978 220.365 120.059C220.447 120.141 220.494 120.252 220.496 120.367V149.272C220.491 149.386 220.444 149.494 220.362 149.574C220.28 149.654 220.171 149.7 220.057 149.702ZM216.185 148.824H219.644V120.806H216.185V148.824Z" fill="#263238"/>
    <path d="M220.742 120.367H216.404V149.272H220.742V120.367Z" fill="#3BB54A"/>
    <path d="M221.172 149.702H215.965V119.928H221.172V149.702ZM216.843 148.824H220.294V120.806H216.843V148.824Z" fill="#263238"/>
    <path d="M177.262 388.654C207.026 388.654 231.155 386.469 231.155 383.773C231.155 381.076 207.026 378.891 177.262 378.891C147.498 378.891 123.37 381.076 123.37 383.773C123.37 386.469 147.498 388.654 177.262 388.654Z" fill="#263238"/>
    <path d="M252.963 324.463C296.009 281.417 296.009 211.626 252.963 168.579C209.917 125.533 140.125 125.533 97.0791 168.579C54.0331 211.626 54.0331 281.417 97.0791 324.463C140.125 367.509 209.917 367.509 252.963 324.463Z" fill="#3BB54A"/>
    <path d="M156.892 198.66L168.263 200.241L172.345 203.955L177.377 204.385L179.273 209.012L178.325 212.287L175.032 214.069L166.612 213.262L166.322 212.252L170.071 209.249L167.025 204.411L159.518 203.884L155.33 200.75L156.892 198.66Z" fill="white"/>
    <path d="M254.089 296.155L245.098 295.277L234.281 294.575L226.493 296.849L218.775 297.472L211.25 301.599L206.808 303.179L204.042 303.987L199.652 308.535L195.218 312.047L187.193 309.765L186.894 302.222L182.109 301.713L177.087 303.179L175.673 301.142L174.857 296.471L172.363 294.478L168.991 296.006L168.728 298.816L164.531 300.308L159.439 296.893L156.172 291.309L157.885 283.161L165.313 281.528L167.832 282.704L170.844 281.826L173.952 278.463L177.508 278.516L184.304 284.978L185.99 284.214L183.804 278.586L181.415 276.014L180.537 271.097L188.65 264.362L187.193 254.704L190.257 250.27L191.829 243.536L194.191 242.298L198.87 236.845L198.528 234.764L194.586 236.187L193.242 234.431L190.485 235.238L186.508 237.486L187.562 233.64L195.613 228.557L196.965 225.712L202.093 230.207L205.017 231.805L208.239 229.768L205.78 226.95L199.406 224.72L191.39 219.706L183.865 217.274L177.552 218.029L173.654 215.896L169.343 216.071L169.132 217.222L170.765 224.65L172.521 226.862L172.609 235.563L166.41 233.008L166.138 229.277L160.132 228.311L157.059 226.204L156.48 219.504L162.222 212.103L160.966 205.957L158.271 207.01L155.856 205.254L154.004 201.742L152.169 201.997L152.344 206.308L149.71 207.625L145.882 199.205L143.503 198.529L139.552 198.054L136.118 201.242L142.537 204.543L144.793 208.512L133.765 204.376L125.512 199.433L123.01 192.725L115.889 192.619L111.824 197.352C110.822 198.448 109.761 199.489 108.645 200.469C107.539 201.347 102.912 203.235 102.912 203.235L103.158 207.792L97.4594 209.732L98.7676 212.366L108.496 211.163L114.809 215.044L117.382 223.824L116.89 232.411L119.814 240.55L116.389 254.915L120.235 273.678L125.582 283.565L131.193 290.641L135.109 290.044L132.677 286.401L129.788 283.968L126.917 278.814L129.033 277.647L135.179 285.663L140.043 292.959L141.949 299.492L148.411 303.882L158.78 307.657L172.828 307.359L177.947 309.949L182.135 313.083L187.465 314.523L193.427 314.418L198.879 312.548C198.879 312.548 199.362 315.138 199.757 316.394C200.152 317.649 197.852 322.944 197.852 322.944L196.579 328.818L200.205 333.752L206.351 334.393L216.483 340.153L220.443 340.636L221.541 344.402L222.498 346.027C241.139 337.155 256.904 323.212 267.988 305.796L267.584 303.943L270.762 289.658L266.838 288.35L254.089 296.155Z" fill="white"/>
    <path d="M251.2 189.344L247.038 185.376L241.911 180.88L238.706 173.646L243.447 173.075L242.964 170.493L239.619 171.196L242.016 169.132L244.519 166.498L243.781 163.987L239.593 160.853L237.371 155.637C217.556 142.053 193.846 135.31 169.847 136.433C145.849 137.557 122.873 146.486 104.413 161.863L111.437 164.268L109.242 169.817L104.764 172.214L106.248 179.142L104.492 180.485L102.789 183.997L104.369 188.449L108.759 187.703L108.25 192.479L112.526 191.232L117.083 179.818L116.662 175.586L123.545 173.031L124.423 169.519L131.447 166.639L130.956 162.143L136.154 160.387C136.154 160.387 139.332 157.279 140.087 157.06C141.63 156.948 143.18 156.948 144.723 157.06L149.368 158.965L154.636 157.429L158.35 153.346L164.268 152.16C165.256 152.469 166.304 152.535 167.323 152.354C168.579 151.985 171.827 149.131 171.827 149.131L180.432 151.519L184.111 152.898L185.208 156.665L189.124 156.059L189.721 153.425L193.418 153.978L193.76 156.059L186.815 160.273L192.698 164.549L203.234 166.929L208.502 170.845L214.174 169.73L214.692 166.858L216.554 165.77L208.555 162.653L204.393 163.329L207.361 161.371L203.015 157.911L207.212 156.41L213.612 157.806L216.633 163.469L220.347 165.928L224.737 172.548L231.436 174.945L233.859 183.233L240.734 185.306L241.287 188.142L241.489 191.654L244.325 195.736L245.484 197.844L249.971 197.352L250.735 192.497L251.2 189.344Z" fill="white"/>
    <path d="M247.065 163.092L247.486 164.532L247.407 168.922L249.163 172.214L252.219 172.408L253.615 177.184L250.234 176.806L253.439 190.582L252.043 196.992L256.108 203.437L260.253 205.491L264.248 219.065L270.622 228.645L276.487 235.669L282.704 235.484L283.239 229.874L283.871 228.996C283.129 224.456 282.109 219.967 280.816 215.553C274.877 195.17 263.153 176.946 247.065 163.092Z" fill="white"/>
    <path d="M181.714 290.062L181.003 291.361L189.195 291.414L193.242 294.048L198.159 293.161L199.107 289.886L193.04 290.571L181.714 290.062Z" fill="white"/>
    <path d="M205.456 288.297L200.626 291.344L201.961 293.135L208.493 291.23L209.161 288.85L206.974 289.763L205.456 288.297Z" fill="white"/>
    <path opacity="0.19" d="M257.03 311.336C235.276 317.694 212.091 317.192 190.633 309.898C169.174 302.604 150.486 288.873 137.113 270.574C123.741 252.276 116.334 230.3 115.901 207.64C115.468 184.98 122.031 162.738 134.696 143.942C118.616 150.261 104.247 160.271 92.7486 173.165C81.2498 186.06 72.9431 201.476 68.499 218.171C64.0548 234.867 63.5977 252.373 67.1643 269.277C70.731 286.182 78.2217 302.011 89.0319 315.488C99.8421 328.964 113.669 339.711 129.397 346.861C145.125 354.01 162.313 357.362 179.575 356.646C196.837 355.93 213.688 351.166 228.77 342.739C243.852 334.312 256.742 322.457 266.399 308.131C263.37 309.317 260.235 310.379 257.03 311.336Z" fill="black"/>
    <path d="M174.988 351.312C169.837 351.315 164.692 350.933 159.597 350.171C159.48 350.155 159.375 350.093 159.304 349.999C159.233 349.905 159.203 349.787 159.219 349.67C159.235 349.554 159.297 349.449 159.391 349.378C159.485 349.307 159.603 349.277 159.72 349.293C165.679 350.185 171.704 350.552 177.728 350.39C177.844 350.39 177.955 350.435 178.038 350.515C178.122 350.596 178.171 350.705 178.176 350.821C178.177 350.878 178.166 350.936 178.145 350.989C178.124 351.043 178.093 351.092 178.053 351.134C178.013 351.175 177.965 351.209 177.913 351.232C177.86 351.255 177.803 351.267 177.745 351.268C176.832 351.304 175.91 351.312 174.988 351.312Z" fill="#263238"/>
    <path d="M155.207 349.407H155.119C151.993 348.792 148.859 348.037 145.794 347.142C145.682 347.109 145.588 347.033 145.532 346.931C145.476 346.829 145.463 346.709 145.496 346.597C145.53 346.487 145.606 346.394 145.708 346.338C145.809 346.283 145.928 346.269 146.04 346.299C149.078 347.177 152.186 347.941 155.286 348.538C155.4 348.561 155.501 348.628 155.567 348.725C155.632 348.822 155.657 348.941 155.637 349.056C155.617 349.155 155.563 349.244 155.484 349.308C155.406 349.372 155.308 349.407 155.207 349.407Z" fill="#263238"/>
    <path d="M142.054 345.948C142.007 345.956 141.96 345.956 141.913 345.948C117.447 337.789 96.8458 320.899 84.0493 298.507C71.2527 276.115 67.1587 249.792 72.55 224.571C72.5773 224.457 72.6475 224.359 72.7458 224.297C72.8441 224.235 72.9629 224.213 73.0768 224.237C73.1331 224.248 73.1865 224.271 73.2339 224.303C73.2814 224.336 73.3218 224.377 73.3529 224.426C73.384 224.474 73.4051 224.528 73.415 224.584C73.4249 224.641 73.4234 224.699 73.4105 224.755C68.0625 249.764 72.1206 275.866 84.8087 298.071C97.4969 320.275 117.925 337.024 142.186 345.114C142.302 345.132 142.406 345.196 142.475 345.292C142.545 345.387 142.573 345.506 142.554 345.623C142.536 345.739 142.472 345.843 142.376 345.913C142.281 345.982 142.162 346.01 142.045 345.992L142.054 345.948Z" fill="#263238"/>
    <path d="M76.5801 212.445C76.5308 212.454 76.4802 212.454 76.4309 212.445C76.3213 212.405 76.2315 212.324 76.1807 212.219C76.1298 212.114 76.122 211.994 76.1587 211.883C78.3976 205.521 81.2407 199.388 84.6491 193.568C84.7077 193.468 84.8033 193.396 84.9151 193.366C85.0269 193.336 85.1459 193.352 85.2461 193.41C85.3464 193.47 85.4191 193.567 85.4486 193.68C85.4782 193.794 85.4622 193.914 85.4042 194.016C82.0259 199.785 79.2092 205.865 76.9928 212.173C76.9574 212.253 76.8996 212.321 76.8265 212.37C76.7533 212.418 76.6678 212.444 76.5801 212.445Z" fill="#263238"/>
    <path d="M175.067 357.195C147.067 357.219 120.098 346.632 99.5921 327.565C79.0863 308.499 66.5675 282.37 64.5573 254.442C62.5471 226.514 71.1948 198.862 88.7587 177.055C106.322 155.249 131.497 140.908 159.212 136.922C186.928 132.936 215.124 139.6 238.121 155.573C261.119 171.545 277.209 195.64 283.151 223.002C289.093 250.365 284.446 278.962 270.144 303.035C255.843 327.108 232.951 344.867 206.079 352.735C196.005 355.682 185.564 357.184 175.067 357.195ZM175.173 136.69C152.115 136.651 129.63 143.87 110.905 157.326C92.1799 170.781 78.1656 189.789 70.8484 211.655C63.5313 233.521 63.2827 257.136 70.1379 279.151C76.9931 301.166 90.6042 320.465 109.042 334.312C127.479 348.158 149.807 355.85 172.861 356.296C195.914 356.743 218.524 349.921 237.483 336.798C256.443 323.675 270.79 304.918 278.492 283.184C286.194 261.451 286.86 237.844 280.394 215.711C273.723 192.954 259.872 172.964 240.91 158.722C221.947 144.481 198.888 136.753 175.173 136.69Z" fill="#263238"/>
    <path d="M158.411 278.138C158.482 283.406 155.444 287.797 151.624 287.797C147.805 287.797 144.653 283.582 144.6 278.279C144.547 272.976 147.577 268.621 151.396 268.621C155.215 268.621 158.35 272.826 158.411 278.138Z" fill="#263238"/>
    <path d="M155.602 273.722C155.874 275.768 155.101 277.568 153.846 277.734C152.59 277.901 151.396 276.374 151.115 274.319C150.834 272.264 151.616 270.473 152.871 270.306C154.127 270.14 155.356 271.667 155.602 273.722Z" fill="white"/>
    <path d="M205.886 277.067C205.956 282.379 202.918 286.725 199.099 286.769C195.279 286.813 192.127 282.555 192.075 277.252C192.022 271.948 195.042 267.593 198.862 267.593C202.681 267.593 205.816 271.746 205.886 277.067Z" fill="#263238"/>
    <path d="M202.839 272.115C203.111 274.17 202.339 275.961 201.083 276.128C199.827 276.295 198.633 274.767 198.352 272.721C198.071 270.675 198.853 268.875 200.108 268.708C201.364 268.542 202.558 270.069 202.839 272.115Z" fill="white"/>
    <path d="M202.786 323.383C202.479 323.381 202.182 323.273 201.946 323.076C201.71 322.878 201.551 322.605 201.496 322.303C199.248 310.195 188.914 301.292 176.911 301.142H176.586C170.954 301.183 165.495 303.09 161.062 306.565C156.63 310.039 153.474 314.885 152.09 320.345C152.045 320.512 151.968 320.669 151.863 320.806C151.758 320.944 151.627 321.059 151.478 321.146C151.328 321.233 151.163 321.289 150.991 321.312C150.82 321.335 150.646 321.324 150.478 321.28C150.311 321.235 150.154 321.158 150.017 321.053C149.88 320.948 149.764 320.817 149.677 320.668C149.59 320.518 149.534 320.353 149.511 320.181C149.488 320.01 149.499 319.836 149.543 319.669C151.074 313.651 154.556 308.309 159.444 304.479C164.331 300.649 170.35 298.547 176.56 298.5H176.92C190.16 298.666 201.575 308.474 204.051 321.811C204.082 321.981 204.08 322.156 204.045 322.325C204.009 322.494 203.94 322.655 203.842 322.797C203.744 322.94 203.619 323.062 203.474 323.157C203.329 323.251 203.167 323.316 202.997 323.347L202.786 323.383Z" fill="#263238"/>
    <path d="M134.907 270.113C133.975 270.175 133.058 269.864 132.355 269.249C131.653 268.634 131.224 267.765 131.162 266.834C131.1 265.902 131.411 264.985 132.026 264.282C132.641 263.58 133.51 263.151 134.441 263.089C134.635 263.089 153.336 260.455 164.549 251.982C164.917 251.704 165.336 251.5 165.782 251.384C166.228 251.267 166.693 251.24 167.15 251.303C167.607 251.366 168.047 251.519 168.445 251.752C168.843 251.985 169.192 252.295 169.47 252.663C169.748 253.03 169.952 253.45 170.068 253.896C170.185 254.342 170.212 254.807 170.149 255.264C170.086 255.721 169.933 256.161 169.7 256.559C169.467 256.957 169.157 257.305 168.79 257.584C156.085 267.198 136.215 269.938 135.372 270.052L134.907 270.113Z" fill="#263238"/>
    <path d="M215.131 274.38C214.789 274.382 214.449 274.332 214.122 274.231C197.36 269.2 181.31 257.496 180.634 257.004C179.883 256.453 179.382 255.625 179.241 254.704C179.1 253.782 179.331 252.843 179.883 252.092C180.435 251.341 181.263 250.84 182.184 250.699C183.105 250.558 184.045 250.789 184.796 251.341C184.945 251.455 200.6 262.835 216.141 267.506C216.948 267.749 217.64 268.273 218.092 268.984C218.544 269.695 218.725 270.545 218.603 271.379C218.48 272.212 218.062 272.974 217.425 273.525C216.788 274.076 215.974 274.38 215.131 274.38Z" fill="#263238"/>
    <path d="M250.954 245.555C250.954 247.659 250.119 249.677 248.631 251.165C247.143 252.652 245.125 253.488 243.021 253.488C240.918 253.488 238.9 252.652 237.412 251.165C235.924 249.677 235.089 247.659 235.089 245.555C235.089 240.989 242.991 227.31 242.991 227.31C242.991 227.31 250.954 241.016 250.954 245.555Z" fill="white"/>
    <path d="M243.017 254.274C240.753 254.223 238.601 253.277 237.032 251.643C235.464 250.009 234.607 247.82 234.65 245.555C234.65 240.919 242.315 227.652 242.64 227.117L243.017 226.458L243.403 227.117C243.728 227.679 251.393 240.946 251.393 245.555C251.433 247.821 250.575 250.01 249.005 251.643C247.435 253.277 245.282 254.223 243.017 254.274ZM243.017 228.197C241.445 230.98 235.528 241.727 235.528 245.555C235.493 246.561 235.662 247.563 236.023 248.502C236.384 249.442 236.93 250.299 237.629 251.022C238.329 251.746 239.167 252.321 240.093 252.714C241.019 253.107 242.015 253.31 243.021 253.31C244.028 253.31 245.024 253.107 245.95 252.714C246.876 252.321 247.714 251.746 248.413 251.022C249.113 250.299 249.659 249.442 250.02 248.502C250.381 247.563 250.55 246.561 250.515 245.555C250.515 241.727 244.598 230.98 243.017 228.197Z" fill="#263238"/>
    <path d="M263.141 262.966C263.171 263.692 263.053 264.416 262.795 265.095C262.538 265.774 262.146 266.394 261.643 266.918C261.14 267.442 260.536 267.859 259.868 268.143C259.2 268.428 258.481 268.575 257.755 268.575C257.028 268.575 256.31 268.428 255.641 268.143C254.973 267.859 254.37 267.442 253.866 266.918C253.363 266.394 252.971 265.774 252.714 265.095C252.456 264.416 252.339 263.692 252.368 262.966C252.368 259.867 257.75 250.577 257.75 250.577C257.75 250.577 263.141 259.849 263.141 262.966Z" fill="white"/>
    <path d="M257.75 269.007C256.176 268.972 254.679 268.315 253.588 267.18C252.497 266.045 251.901 264.523 251.929 262.949C251.929 259.761 257.197 250.718 257.373 250.34L257.75 249.682L258.137 250.34C258.356 250.718 263.58 259.761 263.58 262.949C263.606 264.524 263.007 266.045 261.915 267.181C260.823 268.316 259.325 268.972 257.75 269.007ZM257.75 251.447C256.539 253.615 252.807 260.464 252.807 262.949C252.806 263.6 252.933 264.244 253.181 264.846C253.429 265.448 253.793 265.995 254.252 266.456C254.712 266.917 255.258 267.283 255.859 267.533C256.459 267.783 257.104 267.913 257.755 267.914C258.406 267.915 259.05 267.788 259.652 267.54C260.254 267.292 260.801 266.928 261.262 266.468C261.723 266.009 262.089 265.463 262.339 264.862C262.589 264.261 262.719 263.617 262.72 262.966C262.72 260.464 258.971 253.615 257.75 251.447Z" fill="#263238"/>
    <path d="M120.78 299.781C120.809 300.507 120.691 301.231 120.434 301.91C120.176 302.589 119.784 303.21 119.281 303.733C118.778 304.257 118.174 304.674 117.506 304.959C116.838 305.243 116.119 305.39 115.393 305.39C114.667 305.39 113.948 305.243 113.28 304.959C112.612 304.674 112.008 304.257 111.505 303.733C111.002 303.21 110.61 302.589 110.352 301.91C110.095 301.231 109.977 300.507 110.006 299.781C110.006 296.682 115.388 287.393 115.388 287.393C115.388 287.393 120.78 296.682 120.78 299.781Z" fill="white"/>
    <path d="M115.388 305.84C113.813 305.807 112.316 305.151 111.224 304.015C110.133 302.879 109.537 301.357 109.567 299.781C109.567 296.603 114.835 287.559 115.011 287.173L115.388 286.523L115.766 287.173C115.994 287.559 121.219 296.603 121.219 299.781C121.247 301.357 120.649 302.88 119.556 304.016C118.463 305.152 116.964 305.807 115.388 305.84ZM115.388 288.279C114.168 290.457 110.445 297.305 110.445 299.781C110.417 300.449 110.524 301.115 110.76 301.74C110.996 302.364 111.356 302.935 111.818 303.417C112.281 303.899 112.835 304.283 113.45 304.545C114.064 304.807 114.725 304.942 115.393 304.942C116.061 304.942 116.722 304.807 117.336 304.545C117.95 304.283 118.505 303.899 118.967 303.417C119.43 302.935 119.79 302.364 120.026 301.74C120.261 301.115 120.369 300.449 120.341 299.781C120.341 297.305 116.609 290.457 115.388 288.279Z" fill="#263238"/>
    <path d="M206.017 201.11C206.047 201.836 205.929 202.56 205.672 203.239C205.414 203.918 205.022 204.538 204.519 205.062C204.016 205.586 203.412 206.002 202.744 206.287C202.076 206.572 201.357 206.718 200.631 206.718C199.905 206.718 199.186 206.572 198.518 206.287C197.849 206.002 197.246 205.586 196.743 205.062C196.24 204.538 195.847 203.918 195.59 203.239C195.332 202.56 195.215 201.836 195.244 201.11C195.244 198.002 200.626 188.721 200.626 188.721C200.626 188.721 206.017 197.993 206.017 201.11Z" fill="white"/>
    <path d="M200.626 207.168C199.052 207.134 197.556 206.477 196.465 205.341C195.374 204.206 194.777 202.684 194.805 201.11C194.805 197.923 200.073 188.879 200.249 188.493L200.626 187.843L201.013 188.493C201.232 188.879 206.456 197.923 206.456 201.11C206.482 202.685 205.884 204.207 204.791 205.342C203.699 206.477 202.201 207.134 200.626 207.168ZM200.626 189.608C199.415 191.777 195.683 198.625 195.683 201.11C195.655 201.777 195.762 202.443 195.998 203.068C196.234 203.693 196.594 204.263 197.056 204.745C197.518 205.228 198.073 205.611 198.688 205.873C199.302 206.135 199.963 206.27 200.631 206.27C201.299 206.27 201.96 206.135 202.574 205.873C203.188 205.611 203.743 205.228 204.205 204.745C204.668 204.263 205.027 203.693 205.263 203.068C205.499 202.443 205.607 201.777 205.578 201.11C205.578 198.625 201.847 191.777 200.626 189.608Z" fill="#263238"/>
    <path d="M144.732 189.59C144.761 190.316 144.644 191.04 144.386 191.719C144.129 192.398 143.736 193.018 143.233 193.542C142.73 194.066 142.127 194.483 141.458 194.767C140.79 195.052 140.071 195.199 139.345 195.199C138.619 195.199 137.9 195.052 137.232 194.767C136.564 194.483 135.96 194.066 135.457 193.542C134.954 193.018 134.562 192.398 134.304 191.719C134.047 191.04 133.929 190.316 133.959 189.59C133.959 186.482 139.35 177.201 139.35 177.201C139.35 177.201 144.732 186.482 144.732 189.59Z" fill="white"/>
    <path d="M139.35 195.649C137.775 195.614 136.277 194.957 135.185 193.822C134.092 192.687 133.494 191.166 133.52 189.59C133.52 186.403 138.788 177.36 138.963 176.973L139.35 176.323L139.727 176.973C139.947 177.36 145.171 186.403 145.171 189.59C145.199 191.165 144.602 192.686 143.511 193.822C142.42 194.957 140.924 195.614 139.35 195.649ZM139.35 178.088C138.129 180.257 134.398 187.105 134.398 189.59C134.369 190.258 134.477 190.924 134.713 191.548C134.949 192.173 135.308 192.744 135.771 193.226C136.233 193.708 136.788 194.092 137.402 194.354C138.016 194.616 138.677 194.751 139.345 194.751C140.013 194.751 140.674 194.616 141.288 194.354C141.903 194.092 142.458 193.708 142.92 193.226C143.382 192.744 143.742 192.173 143.978 191.548C144.214 190.924 144.321 190.258 144.293 189.59C144.293 187.105 140.561 180.257 139.35 178.088Z" fill="#263238"/>
    <path d="M185.507 367.389C185.536 368.114 185.419 368.839 185.161 369.518C184.904 370.197 184.512 370.817 184.009 371.341C183.505 371.864 182.902 372.281 182.234 372.566C181.565 372.851 180.847 372.997 180.12 372.997C179.394 372.997 178.675 372.851 178.007 372.566C177.339 372.281 176.735 371.864 176.232 371.341C175.729 370.817 175.337 370.197 175.08 369.518C174.822 368.839 174.704 368.114 174.734 367.389C174.734 364.289 180.125 355 180.125 355C180.125 355 185.507 364.289 185.507 367.389Z" fill="white"/>
    <path d="M180.125 373.447C178.549 373.415 177.05 372.759 175.957 371.623C174.864 370.488 174.266 368.965 174.295 367.389C174.295 364.21 179.519 355.167 179.738 354.781L180.125 354.131L180.502 354.781C180.722 355.167 185.946 364.21 185.946 367.389C185.974 368.963 185.378 370.485 184.287 371.62C183.195 372.756 181.699 373.413 180.125 373.447ZM180.125 355.887C178.904 358.064 175.173 364.913 175.173 367.389C175.145 368.056 175.252 368.722 175.488 369.347C175.724 369.972 176.084 370.542 176.546 371.024C177.008 371.507 177.563 371.89 178.177 372.152C178.792 372.414 179.452 372.549 180.12 372.549C180.788 372.549 181.449 372.414 182.063 372.152C182.678 371.89 183.233 371.507 183.695 371.024C184.157 370.542 184.517 369.972 184.753 369.347C184.989 368.722 185.096 368.056 185.068 367.389C185.068 364.913 181.336 358.064 180.125 355.887Z" fill="#263238"/>
    <path d="M123.001 242.324C123.03 243.05 122.913 243.774 122.655 244.453C122.398 245.132 122.006 245.752 121.502 246.276C120.999 246.8 120.396 247.216 119.727 247.501C119.059 247.786 118.341 247.933 117.614 247.933C116.888 247.933 116.169 247.786 115.501 247.501C114.833 247.216 114.229 246.8 113.726 246.276C113.223 245.752 112.831 245.132 112.573 244.453C112.316 243.774 112.198 243.05 112.228 242.324C112.228 239.216 117.61 229.926 117.61 229.926C117.61 229.926 123.001 239.26 123.001 242.324Z" fill="white"/>
    <path d="M117.61 248.374C116.036 248.341 114.54 247.686 113.449 246.552C112.357 245.418 111.76 243.898 111.789 242.324C111.789 239.137 117.057 230.093 117.232 229.707L117.61 229.057L117.987 229.707C118.216 230.093 123.44 239.137 123.44 242.324C123.466 243.898 122.867 245.419 121.774 246.553C120.682 247.687 119.184 248.341 117.61 248.374ZM117.61 230.813C116.389 232.982 112.667 239.83 112.667 242.315C112.639 242.983 112.746 243.649 112.982 244.273C113.218 244.898 113.578 245.469 114.04 245.951C114.502 246.433 115.057 246.816 115.671 247.079C116.285 247.341 116.946 247.476 117.614 247.476C118.282 247.476 118.943 247.341 119.557 247.079C120.172 246.816 120.727 246.433 121.189 245.951C121.651 245.469 122.011 244.898 122.247 244.273C122.483 243.649 122.59 242.983 122.562 242.315C122.562 239.839 118.83 232.991 117.61 230.822V230.813Z" fill="#263238"/>
    <path d="M53.3829 296.498V204.446C53.3829 202.163 52.4766 199.974 50.8632 198.359C49.2498 196.744 47.0612 195.835 44.7783 195.833C42.4955 195.835 40.3069 196.744 38.6935 198.359C37.08 199.974 36.1738 202.163 36.1738 204.446V295.971C32.8531 297.764 30.2161 300.601 28.6713 304.044C27.1264 307.487 26.7598 311.344 27.6283 315.016C28.4968 318.688 30.5519 321.972 33.4753 324.358C36.3987 326.745 40.0274 328.101 43.7993 328.216C47.5713 328.332 51.276 327.2 54.34 324.997C57.4039 322.794 59.6559 319.642 60.7474 316.03C61.8389 312.417 61.7089 308.546 60.3775 305.015C59.0462 301.484 56.5877 298.49 53.3829 296.498Z" fill="white"/>
    <path d="M44.3657 328.624C43.6793 328.621 42.9936 328.583 42.3111 328.51C38.6108 328.097 35.1378 326.518 32.3935 324.001C29.6493 321.485 27.776 318.161 27.0441 314.51C26.3122 310.86 26.7596 307.071 28.3217 303.691C29.8839 300.311 32.4799 297.515 35.7348 295.707V204.446C35.7348 202.048 36.6876 199.748 38.3836 198.052C40.0796 196.356 42.3798 195.403 44.7783 195.403C47.1768 195.403 49.4771 196.356 51.1731 198.052C52.8691 199.748 53.8219 202.048 53.8219 204.446V296.261C57.0252 298.305 59.479 301.333 60.8151 304.89C62.1511 308.447 62.2972 312.342 61.2315 315.989C60.1658 319.636 57.9458 322.84 54.9047 325.118C51.8636 327.396 48.1655 328.627 44.3657 328.624ZM44.7783 196.237C42.6126 196.242 40.537 197.105 39.0064 198.637C37.4759 200.169 36.6151 202.245 36.6128 204.411V296.226L36.3845 296.357C33.1589 298.103 30.5985 300.863 29.0993 304.21C27.6002 307.557 27.2458 311.305 28.0912 314.874C28.9365 318.443 30.9344 321.634 33.7757 323.953C36.617 326.272 40.1434 327.59 43.8093 327.703C47.4751 327.817 51.0762 326.719 54.0552 324.579C57.0342 322.44 59.2252 319.378 60.2892 315.869C61.3532 312.359 61.2309 308.596 59.9412 305.163C58.6515 301.729 56.2663 298.817 53.1546 296.875L52.9439 296.744V204.446C52.9474 203.371 52.7388 202.305 52.3302 201.311C51.9217 200.316 51.321 199.412 50.5627 198.649C49.8043 197.887 48.9031 197.281 47.9106 196.867C46.9181 196.453 45.8537 196.239 44.7783 196.237Z" fill="#263238"/>
    <path d="M47.8953 298.254V224.404H41.6614V298.025C38.4656 298.672 35.6182 300.469 33.6586 303.075C31.6991 305.681 30.7635 308.916 31.0292 312.165C31.2949 315.415 32.7434 318.455 35.1003 320.708C37.4571 322.961 40.5586 324.271 43.817 324.391C47.0754 324.51 50.2644 323.43 52.7798 321.355C55.2951 319.28 56.9621 316.355 57.4647 313.134C57.9674 309.912 57.2709 306.618 55.5072 303.875C53.7435 301.133 51.0352 299.133 47.8953 298.254Z" fill="#3BB54A"/>
    <path d="M44.3393 324.761C40.9723 324.76 37.7233 323.521 35.2105 321.279C32.6977 319.038 31.0965 315.951 30.7116 312.606C30.3267 309.262 31.1849 305.892 33.1229 303.138C35.061 300.385 37.9437 298.44 41.2224 297.674V223.965H48.3343V297.929C51.4773 298.888 54.1716 300.944 55.9266 303.722C57.6816 306.5 58.3808 309.816 57.8969 313.066C57.413 316.316 55.7781 319.285 53.2899 321.431C50.8016 323.578 47.6254 324.759 44.3393 324.761ZM42.1004 224.843V298.385L41.7492 298.456C38.6615 299.083 35.911 300.82 34.0187 303.339C32.1264 305.858 31.2237 308.984 31.4816 312.124C31.7395 315.264 33.1402 318.2 35.4182 320.377C37.6963 322.553 40.6935 323.819 43.842 323.933C46.9906 324.048 50.0718 323.004 52.502 320.999C54.9323 318.993 56.5426 316.167 57.0281 313.053C57.5136 309.94 56.8405 306.758 55.1363 304.108C53.432 301.458 50.8151 299.525 47.7812 298.675L47.4563 298.587V224.834L42.1004 224.843Z" fill="#263238"/>
    <path d="M38.9659 309.694C41.0073 309.694 42.6623 308.039 42.6623 305.998C42.6623 303.956 41.0073 302.301 38.9659 302.301C36.9244 302.301 35.2694 303.956 35.2694 305.998C35.2694 308.039 36.9244 309.694 38.9659 309.694Z" fill="white"/>
    <path d="M43.3296 214.675H38.6234C38.5077 214.673 38.3973 214.626 38.3155 214.544C38.2336 214.462 38.1867 214.352 38.1844 214.236C38.1844 214.12 38.2307 214.008 38.313 213.926C38.3953 213.843 38.507 213.797 38.6234 213.797H43.3296C43.446 213.797 43.5577 213.843 43.64 213.926C43.7224 214.008 43.7686 214.12 43.7686 214.236C43.7686 214.353 43.7224 214.464 43.64 214.547C43.5577 214.629 43.446 214.675 43.3296 214.675Z" fill="#263238"/>
    <path d="M43.3296 221.699H38.6234C38.507 221.699 38.3953 221.653 38.313 221.571C38.2307 221.488 38.1844 221.377 38.1844 221.26C38.1867 221.145 38.2336 221.034 38.3155 220.952C38.3973 220.871 38.5077 220.824 38.6234 220.821H43.3296C43.446 220.821 43.5577 220.868 43.64 220.95C43.7224 221.032 43.7686 221.144 43.7686 221.26C43.7686 221.377 43.7224 221.488 43.64 221.571C43.5577 221.653 43.446 221.699 43.3296 221.699Z" fill="#263238"/>
    <path d="M43.3296 228.794H38.6234C38.507 228.794 38.3953 228.748 38.313 228.665C38.2307 228.583 38.1844 228.471 38.1844 228.355C38.1867 228.239 38.2336 228.129 38.3155 228.047C38.3973 227.965 38.5077 227.918 38.6234 227.916H43.3296C43.446 227.916 43.5577 227.962 43.64 228.044C43.7224 228.127 43.7686 228.238 43.7686 228.355C43.7686 228.471 43.7224 228.583 43.64 228.665C43.5577 228.748 43.446 228.794 43.3296 228.794Z" fill="#263238"/>
    <path d="M43.3296 235.853H38.6234C38.507 235.853 38.3953 235.807 38.313 235.724C38.2307 235.642 38.1844 235.53 38.1844 235.414C38.1867 235.298 38.2336 235.188 38.3155 235.106C38.3973 235.024 38.5077 234.977 38.6234 234.975H43.3296C43.446 234.975 43.5577 235.021 43.64 235.104C43.7224 235.186 43.7686 235.298 43.7686 235.414C43.7686 235.53 43.7224 235.642 43.64 235.724C43.5577 235.807 43.446 235.853 43.3296 235.853Z" fill="#263238"/>
    <path d="M43.3296 242.912H38.6234C38.507 242.912 38.3953 242.866 38.313 242.784C38.2307 242.701 38.1844 242.59 38.1844 242.473C38.1867 242.358 38.2336 242.247 38.3155 242.165C38.3973 242.083 38.5077 242.037 38.6234 242.034H43.3296C43.446 242.034 43.5577 242.081 43.64 242.163C43.7224 242.245 43.7686 242.357 43.7686 242.473C43.7686 242.59 43.7224 242.701 43.64 242.784C43.5577 242.866 43.446 242.912 43.3296 242.912Z" fill="#263238"/>
    <path d="M43.3296 249.972H38.6234C38.507 249.972 38.3953 249.925 38.313 249.843C38.2307 249.761 38.1844 249.649 38.1844 249.533C38.1844 249.416 38.2307 249.304 38.313 249.222C38.3953 249.14 38.507 249.094 38.6234 249.094H43.3296C43.446 249.094 43.5577 249.14 43.64 249.222C43.7224 249.304 43.7686 249.416 43.7686 249.533C43.7686 249.649 43.7224 249.761 43.64 249.843C43.5577 249.925 43.446 249.972 43.3296 249.972Z" fill="#263238"/>
    <path d="M43.3296 257.031H38.6234C38.507 257.031 38.3953 256.985 38.313 256.902C38.2307 256.82 38.1844 256.708 38.1844 256.592C38.1844 256.475 38.2307 256.364 38.313 256.281C38.3953 256.199 38.507 256.153 38.6234 256.153H43.3296C43.446 256.153 43.5577 256.199 43.64 256.281C43.7224 256.364 43.7686 256.475 43.7686 256.592C43.7686 256.708 43.7224 256.82 43.64 256.902C43.5577 256.985 43.446 257.031 43.3296 257.031Z" fill="#263238"/>
    <path d="M43.3296 264.09H38.6234C38.5077 264.088 38.3973 264.041 38.3155 263.959C38.2336 263.877 38.1867 263.767 38.1844 263.651C38.1844 263.535 38.2307 263.423 38.313 263.341C38.3953 263.258 38.507 263.212 38.6234 263.212H43.3296C43.446 263.212 43.5577 263.258 43.64 263.341C43.7224 263.423 43.7686 263.535 43.7686 263.651C43.7686 263.767 43.7224 263.879 43.64 263.961C43.5577 264.044 43.446 264.09 43.3296 264.09Z" fill="#263238"/>
    <path d="M43.3296 271.149H38.6234C38.5077 271.147 38.3973 271.1 38.3155 271.018C38.2336 270.936 38.1867 270.826 38.1844 270.71C38.1844 270.594 38.2307 270.482 38.313 270.4C38.3953 270.318 38.507 270.271 38.6234 270.271H43.3296C43.446 270.271 43.5577 270.318 43.64 270.4C43.7224 270.482 43.7686 270.594 43.7686 270.71C43.7686 270.827 43.7224 270.938 43.64 271.021C43.5577 271.103 43.446 271.149 43.3296 271.149Z" fill="#263238"/>
    <path d="M43.3296 278.209H38.6234C38.5077 278.206 38.3973 278.159 38.3155 278.078C38.2336 277.996 38.1867 277.885 38.1844 277.77C38.1844 277.653 38.2307 277.541 38.313 277.459C38.3953 277.377 38.507 277.331 38.6234 277.331H43.3296C43.446 277.331 43.5577 277.377 43.64 277.459C43.7224 277.541 43.7686 277.653 43.7686 277.77C43.7686 277.886 43.7224 277.998 43.64 278.08C43.5577 278.162 43.446 278.209 43.3296 278.209Z" fill="#263238"/>
    <path d="M43.3296 285.259H38.6234C38.507 285.259 38.3953 285.213 38.313 285.13C38.2307 285.048 38.1844 284.936 38.1844 284.82C38.1867 284.704 38.2336 284.594 38.3155 284.512C38.3973 284.43 38.5077 284.383 38.6234 284.381H43.3296C43.446 284.381 43.5577 284.427 43.64 284.51C43.7224 284.592 43.7686 284.704 43.7686 284.82C43.7686 284.936 43.7224 285.048 43.64 285.13C43.5577 285.213 43.446 285.259 43.3296 285.259Z" fill="#263238"/>
    <path d="M43.3296 292.318H38.6234C38.507 292.318 38.3953 292.272 38.313 292.19C38.2307 292.107 38.1844 291.996 38.1844 291.879C38.1867 291.764 38.2336 291.653 38.3155 291.571C38.3973 291.49 38.5077 291.443 38.6234 291.44H43.3296C43.446 291.44 43.5577 291.487 43.64 291.569C43.7224 291.651 43.7686 291.763 43.7686 291.879C43.7686 291.996 43.7224 292.107 43.64 292.19C43.5577 292.272 43.446 292.318 43.3296 292.318Z" fill="#263238"/>
    <path d="M33.0041 240.094L22.8455 222.507L12.6956 240.094H19.9919V296.287H25.7078V240.094H33.0041Z" fill="#263238"/>
</svg>
